<svg width="50" height="51" viewBox="0 0 50 51" fill="none" xmlns="http://www.w3.org/2000/svg">
<path d="M17.4914 11.5532L28.5238 18.186C29.2758 18.6381 29.7357 19.4512 29.7357 20.3286V33.8079C29.7357 34.6853 29.2758 35.4984 28.5238 35.9505L17.4914 42.5833C16.6988 43.0599 15.7078 43.0599 14.9151 42.5833L3.88268 35.9505C3.13074 35.4984 2.67083 34.6853 2.67083 33.8079V20.3286C2.67083 19.4512 3.13075 18.6381 3.88268 18.186L14.9151 11.5532C15.7078 11.0766 16.6988 11.0766 17.4914 11.5532Z" stroke="#FCFCFC"/>
<path d="M25.2074 4.98748L31.553 1.08691L37.8985 4.98748V12.8442L31.553 16.7448L25.2074 12.8442V4.98748Z" stroke="#FCFCFC"/>
<path d="M24.1484 41.5677L28.9181 38.7859L33.6878 41.5677V47.1401L28.9181 49.9219L24.1484 47.1401V41.5677Z" stroke="#FCFCFC"/>
<path d="M32.4589 33.603L34.4204 32.5099L36.382 33.603V35.7588L34.4204 36.8519L32.4589 35.7588V33.603Z" stroke="#FCFCFC"/>
<path d="M45.8933 33.4725L47.5314 32.5164L49.1695 33.4725V35.3942L47.5314 36.3503L45.8933 35.3942V33.4725Z" stroke="#FCFCFC"/>
<path d="M33.8845 21.4757L39.9605 17.9117L46.0365 21.4757V28.6174L39.9605 32.1814L33.8845 28.6174V21.4757Z" stroke="#FCFCFC"/>
<path d="M8.25781 19.0195C8.25781 18.4672 8.70553 18.0195 9.25781 18.0195H22.9101C23.4624 18.0195 23.9101 18.4672 23.9101 19.0195V21.2098C23.9101 21.7621 23.4624 22.2098 22.9101 22.2098H18.6492C18.0969 22.2098 17.6492 22.6575 17.6492 23.2098V25.643C17.6492 26.1953 18.0969 26.643 18.6492 26.643H22.5505C23.1028 26.643 23.5505 27.0907 23.5505 27.643V29.9345C23.5505 30.4868 23.1028 30.9345 22.5505 30.9345H18.6492C18.0969 30.9345 17.6492 31.3822 17.6492 31.9345V36.2503C17.6492 36.8026 17.2015 37.2503 16.6492 37.2503H14.44C13.8877 37.2503 13.44 36.8026 13.44 36.2503V23.2098C13.44 22.6575 12.9923 22.2098 12.44 22.2098H9.25781C8.70553 22.2098 8.25781 21.7621 8.25781 21.2098V19.0195Z" fill="#FCFCFC"/>
</svg>
