<svg width="24" height="25" viewBox="0 0 24 25" fill="none" xmlns="http://www.w3.org/2000/svg">
<path d="M5.75 2V2.25H6H18H18.25V2V1.25C18.25 1.11739 18.3027 0.990215 18.3964 0.896446C18.4902 0.802679 18.6174 0.75 18.75 0.75C18.8826 0.75 19.0098 0.802679 19.1036 0.896446C19.1973 0.990215 19.25 1.11739 19.25 1.25V2V2.25H19.5H21C21.7293 2.25 22.4288 2.53973 22.9445 3.05546C23.4603 3.57118 23.75 4.27065 23.75 5V21.5C23.75 22.2293 23.4603 22.9288 22.9445 23.4445C22.4288 23.9603 21.7293 24.25 21 24.25H3C2.27065 24.25 1.57118 23.9603 1.05546 23.4445C0.539731 22.9288 0.25 22.2293 0.25 21.5V5C0.25 4.27065 0.539731 3.57118 1.05546 3.05546C1.57118 2.53973 2.27065 2.25 3 2.25H4.5H4.75V2V1.25C4.75 1.11739 4.80268 0.990215 4.89645 0.896447C4.99022 0.802678 5.11739 0.75 5.25 0.75C5.38261 0.75 5.50978 0.802678 5.60355 0.896447C5.69732 0.990215 5.75 1.11739 5.75 1.25V2ZM1.5 6.25H1.25V6.5V21.5C1.25 21.9641 1.43437 22.4092 1.76256 22.7374C2.09075 23.0656 2.53587 23.25 3 23.25H21C21.4641 23.25 21.9092 23.0656 22.2374 22.7374C22.5656 22.4092 22.75 21.9641 22.75 21.5V6.5V6.25H22.5H1.5Z" fill="#F04A94" stroke="#FCFCFC" stroke-width="0.5"/>
</svg>
