<svg width="26" height="27" viewBox="0 0 26 27" fill="none" xmlns="http://www.w3.org/2000/svg">
<path d="M13.8845 1.14555L13.8842 1.14522C13.3626 0.601971 12.6556 0.3 11.9221 0.3H3.0795C1.55587 0.3 0.3 1.58759 0.3 3.19794L0.3 12.3805C0.3 12.3805 0.3 12.3806 0.3 12.3806C0.300328 13.1532 0.596063 13.8918 1.11885 14.4349L12.117 25.856C12.117 25.856 12.117 25.856 12.117 25.8561C12.6392 26.3979 13.3446 26.7 14.0777 26.7C14.8108 26.7 15.5162 26.3979 16.0384 25.8561L13.8845 1.14555ZM13.8845 1.14555L24.8826 12.5667C24.8827 12.5667 24.8827 12.5667 24.8827 12.5668C25.4048 13.1094 25.7 13.8474 25.7 14.6192C25.7 15.3909 25.4048 16.129 24.8827 16.6716C24.8827 16.6716 24.8827 16.6716 24.8826 16.6716L16.0385 25.856L13.8845 1.14555ZM2.76803 12.7041L2.55193 12.9121C2.41344 12.7683 2.33957 12.576 2.33957 12.3806V3.19794C2.33957 3.00079 2.41488 2.80954 2.55233 2.66681C2.69014 2.52369 2.87953 2.44109 3.0795 2.44109H11.9218H11.9221V2.74109L2.76803 12.7041ZM2.76803 12.7041L2.55193 12.9121L13.5499 24.3331M2.76803 12.7041L13.5499 24.3331M13.5499 24.3331C13.6181 24.4041 13.6997 24.461 13.7904 24.5001C13.8811 24.5392 13.9788 24.5595 14.0777 24.5595C14.1767 24.5595 14.2743 24.5392 14.365 24.5001C14.4557 24.461 14.5374 24.4041 14.6055 24.3331L23.4476 15.151M13.5499 24.3331L23.4476 15.151M23.4476 15.151C23.4477 15.1509 23.4478 15.1508 23.4478 15.1507L23.4476 15.151ZM8.79857 7.60958C9.18198 7.60958 9.55208 7.76764 9.82678 8.05291C10.1018 8.33855 10.2583 8.72831 10.2583 9.13698C10.2583 9.54564 10.1018 9.9354 9.82678 10.221C9.55208 10.5063 9.18198 10.6644 8.79857 10.6644C8.41516 10.6644 8.04506 10.5063 7.77036 10.221C7.49529 9.9354 7.33886 9.54564 7.33886 9.13698C7.33886 8.72831 7.49529 8.33855 7.77036 8.05291C8.04506 7.76764 8.41516 7.60958 8.79857 7.60958Z" fill="#F04A94" stroke="#FCFCFC" stroke-width="0.6"/>
</svg>
