<svg width="24" height="31" viewBox="0 0 24 31" fill="none" xmlns="http://www.w3.org/2000/svg">
<path d="M12 21.2609C15.2297 21.2609 18.0877 21.5273 20.1066 22.2423C21.1094 22.5974 21.8351 23.0394 22.3029 23.55C22.7501 24.0381 23 24.628 23 25.3984C23 26.1673 22.7493 26.7538 22.301 27.2384C21.8315 27.746 21.1031 28.1845 20.0973 28.5357C18.0726 29.2428 15.2134 29.5 12 29.5C8.77109 29.5 5.91301 29.2336 3.8939 28.5186C2.89102 28.1634 2.16521 27.7214 1.69726 27.2108C1.24996 26.7227 1 26.1329 1 25.3624C1 24.5936 1.25072 24.0071 1.69898 23.5225C2.16854 23.0149 2.89694 22.5764 3.90274 22.2252C5.92737 21.5181 8.78655 21.2609 12 21.2609ZM12 1.5C15.8568 1.5 18.941 4.58379 18.941 8.43658C18.941 12.2896 15.8566 15.3747 12 15.3747C8.14479 15.3747 5.05902 12.2895 5.05902 8.43658C5.05902 4.58391 8.14454 1.5 12 1.5Z" stroke="#F04A94" stroke-width="2"/>
</svg>
