<svg width="25" height="21" viewBox="0 0 25 21" fill="none" xmlns="http://www.w3.org/2000/svg">
<path d="M11.6094 0.805112C14.0904 0.557441 16.5795 1.14905 18.7146 2.48953L16.9332 3.73219C15.0806 2.79701 12.9924 2.49515 10.9642 2.87259C8.88651 3.25926 6.98491 4.33773 5.54043 5.94556C4.0961 7.55322 3.18531 9.60475 2.941 11.7955C2.69669 13.9863 3.13158 16.2019 4.18232 18.1144L4.25354 18.244H4.40143H20.9534H21.1013L21.1725 18.1144C21.981 16.6424 22.4284 14.9837 22.4754 13.2869C22.521 11.6368 22.1866 9.9998 21.5007 8.51442L22.6885 6.64006C23.7335 8.45945 24.3126 10.5352 24.3651 12.665C24.4209 14.9297 23.8791 17.1659 22.8004 19.1265C22.6106 19.4713 22.3382 19.7559 22.012 19.9527C21.6858 20.1493 21.3169 20.2515 20.9425 20.25H20.9414H4.40214C4.03162 20.2475 3.66741 20.1434 3.34555 19.9471C3.02351 19.7506 2.75461 19.4683 2.5667 19.127C1.2669 16.7407 0.766879 13.9647 1.14781 11.2436C1.52875 8.5224 2.76828 6.01582 4.66571 4.12402C6.56293 2.23244 9.00808 1.06479 11.6094 0.805112Z" fill="#F04A94" stroke="#FCFCFC" stroke-width="0.5"/>
<path d="M12.0657 14.4951L12.0655 14.4949C11.8533 14.2533 11.6835 13.9646 11.5671 13.6447C11.4508 13.3248 11.3906 12.981 11.3906 12.6332C11.3906 12.2854 11.4508 11.9416 11.5671 11.6217C11.6805 11.31 11.8447 11.0279 12.0494 10.7901L21.6932 3.46136L15.23 14.5126C15.0214 14.7461 14.777 14.9299 14.511 15.0556L14.6178 15.2816L14.511 15.0556C14.2386 15.1843 13.948 15.25 13.6555 15.25C13.3631 15.25 13.0725 15.1843 12.8 15.0556L12.6932 15.2816L12.8 15.0556C12.5275 14.9268 12.2776 14.737 12.0657 14.4951Z" fill="#F04A94" stroke="#FCFCFC" stroke-width="0.5"/>
</svg>
