<svg width="26" height="27" viewBox="0 0 26 27" fill="none" xmlns="http://www.w3.org/2000/svg">
<path d="M13 26.5C19.6273 26.5 25 20.6795 25 13.5C25 6.32045 19.6273 0.5 13 0.5C6.37273 0.5 1 6.32045 1 13.5C1 20.6795 6.37273 26.5 13 26.5ZM13 14.6818C13.2893 14.6818 13.5668 14.5573 13.7714 14.3357C13.976 14.114 14.0909 13.8134 14.0909 13.5C14.0909 13.1866 13.976 12.886 13.7714 12.6643C13.5668 12.4427 13.2893 12.3182 13 12.3182C12.7107 12.3182 12.4332 12.4427 12.2286 12.6643C12.024 12.886 11.9091 13.1866 11.9091 13.5C11.9091 13.8134 12.024 14.114 12.2286 14.3357C12.4332 14.5573 12.7107 14.6818 13 14.6818ZM13 17.0455C13.868 17.0455 14.7004 16.6719 15.3142 16.007C15.9279 15.3421 16.2727 14.4403 16.2727 13.5C16.2727 12.5597 15.9279 11.6579 15.3142 10.993C14.7004 10.3281 13.868 9.95455 13 9.95455C12.132 9.95455 11.2996 10.3281 10.6858 10.993C10.0721 11.6579 9.72727 12.5597 9.72727 13.5C9.72727 14.4403 10.0721 15.3421 10.6858 16.007C11.2996 16.6719 12.132 17.0455 13 17.0455ZM13 19.4091C14.4466 19.4091 15.834 18.7865 16.8569 17.6784C17.8799 16.5702 18.4545 15.0672 18.4545 13.5C18.4545 11.9328 17.8799 10.4298 16.8569 9.32164C15.834 8.21347 14.4466 7.59091 13 7.59091C11.5534 7.59091 10.166 8.21347 9.14305 9.32164C8.12013 10.4298 7.54545 11.9328 7.54545 13.5C7.54545 15.0672 8.12013 16.5702 9.14305 17.6784C10.166 18.7865 11.5534 19.4091 13 19.4091Z" stroke="#F04A94"/>
<ellipse cx="13" cy="13.5" rx="5" ry="6" fill="#F04A94"/>
</svg>
