<svg width="25" height="26" viewBox="0 0 25 26" fill="none" xmlns="http://www.w3.org/2000/svg">
<path fill-rule="evenodd" clip-rule="evenodd" d="M12.0999 0.820312C5.41391 0.820312 0 6.2764 0 13C0 19.7236 5.41391 25.1797 12.0999 25.1797C18.7859 25.1797 24.1998 19.7236 24.1998 13C24.1998 6.2764 18.7859 0.820312 12.0999 0.820312ZM1 13C1 6.82221 5.97265 1.82031 12.0999 1.82031C18.2272 1.82031 23.1998 6.82221 23.1998 13C23.1998 19.1778 18.2272 24.1797 12.0999 24.1797C5.97265 24.1797 1 19.1778 1 13ZM7.93528 11.1433C7.75126 10.9375 7.43517 10.9197 7.22929 11.1038C7.0234 11.2878 7.00569 11.6039 7.18972 11.8098L11.7288 16.8879C11.8237 16.994 11.9593 17.0547 12.1016 17.0547C12.2439 17.0547 12.3795 16.994 12.4744 16.8879L17.0135 11.8098C17.1975 11.6039 17.1798 11.2878 16.9739 11.1038C16.768 10.9197 16.4519 10.9375 16.2679 11.1433L12.1016 15.8044L7.93528 11.1433Z" fill="#F04A94"/>
</svg>
