<svg width="23" height="23" viewBox="0 0 23 23" fill="none" xmlns="http://www.w3.org/2000/svg">
<path d="M20.0893 2.875V2.5H19.7143H13.1429H12.7679V2.875V20.125V20.5H13.1429H14.7857C15.1369 20.5 15.4653 20.6225 15.7004 20.8282C15.934 21.0326 16.0536 21.2981 16.0536 21.5625C16.0536 21.8269 15.934 22.0924 15.7004 22.2968C15.4653 22.5025 15.1369 22.625 14.7857 22.625H8.21429C7.86306 22.625 7.53465 22.5025 7.29955 22.2968C7.06604 22.0924 6.94643 21.8269 6.94643 21.5625C6.94643 21.2981 7.06604 21.0326 7.29955 20.8282C7.53465 20.6225 7.86306 20.5 8.21429 20.5H9.85714H10.2321V20.125V2.875V2.5H9.85714H3.28571H2.91071V2.875V4.3125C2.91071 4.5769 2.7911 4.84243 2.55759 5.04675C2.32249 5.25247 1.99408 5.375 1.64286 5.375C1.29163 5.375 0.963226 5.25247 0.728121 5.04675C0.494615 4.84243 0.375 4.5769 0.375 4.3125V2.875C0.375 2.22935 0.667701 1.59819 1.2093 1.12428C1.7525 0.648984 2.49877 0.375 3.28571 0.375H19.7143C20.5012 0.375 21.2475 0.648984 21.7907 1.12428C22.3323 1.59819 22.625 2.22935 22.625 2.875V4.3125C22.625 4.57691 22.5054 4.84243 22.2719 5.04675C22.0368 5.25247 21.7084 5.375 21.3571 5.375C21.0059 5.375 20.6775 5.25247 20.4424 5.04675C20.2089 4.84243 20.0893 4.57691 20.0893 4.3125V2.875Z" fill="#F04A94" stroke="#FCFCFC" stroke-width="0.75"/>
</svg>
