<svg width="28" height="28" viewBox="0 0 28 28" fill="none" xmlns="http://www.w3.org/2000/svg">
<path d="M3.124 2.83875H4.42C5.15067 2.83875 5.684 2.99608 6.02 3.31075C6.36133 3.62008 6.532 4.04675 6.532 4.59075C6.532 5.22008 6.348 5.70275 5.98 6.03875C5.612 6.37475 5.06533 6.54275 4.34 6.54275H4.028V8.71875H3.124V2.83875ZM4.364 5.75075C4.83333 5.75075 5.16133 5.64675 5.348 5.43875C5.53467 5.23075 5.628 4.98008 5.628 4.68675C5.628 4.37208 5.53733 4.11608 5.356 3.91875C5.17467 3.72142 4.87067 3.62275 4.444 3.62275H4.028V5.75075H4.364ZM8.48619 3.62275H6.98219V2.83875H10.8942V3.62275H9.37419V8.71875H8.48619V3.62275ZM11.2941 6.32675H14.0381V7.09475H11.2941V6.32675ZM15.5459 2.83875H17.0419C17.8845 2.83875 18.4445 2.98008 18.7219 3.26275C18.9992 3.54542 19.1379 3.88675 19.1379 4.28675C19.1379 4.55342 19.0792 4.80675 18.9619 5.04675C18.8445 5.28142 18.6579 5.45742 18.4019 5.57475C18.7805 5.67075 19.0579 5.83875 19.2339 6.07875C19.4152 6.31875 19.5059 6.60142 19.5059 6.92675C19.5059 7.26808 19.4525 7.56675 19.3459 7.82275C19.2392 8.07875 19.0179 8.29208 18.6819 8.46275C18.3459 8.63342 17.8605 8.71875 17.2259 8.71875H15.5459V2.83875ZM17.1859 5.33475C17.5645 5.33475 17.8339 5.24408 17.9939 5.06275C18.1539 4.87608 18.2339 4.64142 18.2339 4.35875C18.2339 3.85208 17.8712 3.59875 17.1459 3.59875H16.4259V5.33475H17.1859ZM17.3459 7.96675C17.8312 7.96675 18.1565 7.87075 18.3219 7.67875C18.4925 7.48142 18.5779 7.23342 18.5779 6.93475C18.5779 6.65208 18.4819 6.43342 18.2899 6.27875C18.0979 6.12408 17.8072 6.04675 17.4179 6.04675H16.4259V7.96675H17.3459ZM23.4897 8.71875L22.3057 6.49475C22.0604 6.50542 21.8417 6.51075 21.6497 6.51075H21.4257V8.71875H20.5537V2.83875H21.8897C22.567 2.83875 23.1244 2.98008 23.5617 3.26275C23.999 3.54008 24.2177 3.99342 24.2177 4.62275C24.2177 5.01742 24.1244 5.35875 23.9377 5.64675C23.7564 5.92942 23.4844 6.14808 23.1217 6.30275L24.5217 8.71875H23.4897ZM21.9937 5.78275C22.5164 5.78275 22.8737 5.67075 23.0657 5.44675C23.263 5.21742 23.3617 4.94542 23.3617 4.63075C23.3617 3.93208 22.895 3.58275 21.9617 3.58275H21.4257V5.78275H21.9937Z" fill="#333333"/>
<g clip-path="url(#clip0_1034_26404)">
<g filter="url(#filter0_d_1034_26404)">
<path d="M25.7622 21.7188C25.7622 23.9278 24.5226 25.7188 22.0872 25.7188H5.91719C3.48177 25.7188 2.24219 23.9278 2.24219 21.7188V13.7188C2.24219 11.5097 3.48177 9.71875 5.91719 9.71875H22.0872C24.5226 9.71875 25.7622 11.5097 25.7622 13.7188V21.7188Z" fill="#128807"/>
</g>
<path d="M23.2422 17.4375L14.2424 23.4375L5.24219 17.4375L14.2424 11.4375L23.2422 17.4375Z" fill="#F9CB38"/>
<path fill-rule="evenodd" clip-rule="evenodd" d="M17.4489 18.5813C17.0505 19.9213 15.8036 20.9415 14.3918 21.0801C12.5056 21.2669 10.8554 20.0804 10.4541 18.2462C10.3354 17.7072 10.3505 17.1478 10.4982 16.6158C10.5532 16.5569 10.6292 16.5427 10.7048 16.5323C11.2565 16.4565 11.8142 16.4325 12.3704 16.4606C12.9639 16.4938 13.5525 16.5753 14.1247 16.7354C14.7119 16.9 15.2805 17.1148 15.8173 17.4004C16.2212 17.6128 16.6071 17.8573 16.971 18.1315C17.0943 18.2261 17.22 18.319 17.3383 18.4198C17.3912 18.4649 17.4328 18.5134 17.4489 18.5813Z" fill="#002776"/>
<path fill-rule="evenodd" clip-rule="evenodd" d="M10.7031 16.0758C11.1552 15.076 11.9174 14.4103 12.971 14.0978C15.0929 13.4681 17.2698 14.856 17.5852 17.0204C17.6343 17.3548 17.6364 17.6902 17.5845 18.0253C17.531 18.0451 17.4911 18.017 17.4543 17.9868C17.0697 17.6758 16.6594 17.3974 16.2277 17.1545C15.8953 16.9678 15.5499 16.8047 15.1941 16.6666C15.1311 16.642 15.0519 16.6292 15.0302 16.5456C15.053 16.5054 15.0817 16.4704 15.116 16.4379C15.1283 16.4254 15.1461 16.4133 15.1297 16.3925C15.1241 16.3859 15.1125 16.3859 15.1027 16.3869C15.0764 16.3897 15.0799 16.4077 15.081 16.4268C15.0831 16.4888 15.0467 16.5287 14.9987 16.5605C14.9136 16.5796 14.832 16.5543 14.7631 16.5179C14.5656 16.4153 14.3471 16.3804 14.1381 16.3232C13.8121 16.2355 13.4773 16.1859 13.1433 16.1343C12.8767 16.0922 12.6083 16.0619 12.339 16.0435C12.0939 16.0265 11.8443 16.029 11.5974 16.0456C11.3281 16.0643 11.0582 16.083 10.7903 16.1149C10.7735 16.1173 10.7564 16.1149 10.7409 16.108C10.7255 16.1011 10.7123 16.0899 10.7031 16.0758Z" fill="#002776"/>
<path fill-rule="evenodd" clip-rule="evenodd" d="M15.0281 16.5246C15.0267 16.5668 15.0649 16.5613 15.088 16.5703C15.9922 16.9184 16.833 17.41 17.5775 18.0257C17.556 18.2158 17.5135 18.403 17.4507 18.584C17.0127 18.2243 16.5642 17.8815 16.068 17.6016C14.4997 16.7176 12.8204 16.3672 11.0252 16.555C10.8501 16.5727 10.6751 16.5963 10.5 16.6174C10.5452 16.4299 10.6026 16.2459 10.6968 16.0755C12.0074 15.9005 13.2952 15.9999 14.5589 16.387C14.7158 16.4351 14.8653 16.5128 15.0326 16.5273L15.0281 16.5235" fill="#FEFEFE"/>
<path fill-rule="evenodd" clip-rule="evenodd" d="M16.6624 18.7574C16.557 18.7463 16.6715 18.8742 16.5651 18.8714C16.4723 18.8701 16.4674 18.7966 16.4219 18.7557C16.4569 18.7197 16.5189 18.7124 16.5385 18.6562C16.5518 18.7155 16.6082 18.728 16.6624 18.7574Z" fill="#D9DFEA"/>
<path fill-rule="evenodd" clip-rule="evenodd" d="M12.6805 19.3958C12.5814 19.4073 12.6644 19.514 12.5814 19.5157C12.4977 19.5175 12.4546 19.4561 12.4378 19.3927C12.4319 19.3747 12.5124 19.3345 12.552 19.3047C12.5569 19.3674 12.6227 19.3646 12.6805 19.3958Z" fill="#E9ECF3"/>
<path fill-rule="evenodd" clip-rule="evenodd" d="M13.9981 19.2027C13.8605 19.2908 13.9715 19.0919 13.8906 19.1113C13.9169 19.0697 13.9911 19.0794 13.996 19.0156C14.031 19.0517 14.0608 19.0932 14.1165 19.1009C14.037 19.0901 14.1235 19.2648 13.9981 19.2027Z" fill="#EDEFF5"/>
<path fill-rule="evenodd" clip-rule="evenodd" d="M11.1528 16.8678C11.1199 16.9298 11.0951 16.9991 10.9953 16.9575C10.9442 16.9364 10.9988 16.8671 10.9375 16.8605L11.0509 16.7617C11.0587 16.778 11.0678 16.7936 11.0755 16.8099C11.0846 16.8511 11.1675 16.7964 11.1528 16.8678Z" fill="#F0F2F6"/>
<path fill-rule="evenodd" clip-rule="evenodd" d="M11.4708 18.3727C11.4187 18.389 11.4561 18.5248 11.3441 18.4655C11.3329 18.46 11.2839 18.4867 11.293 18.4711C11.3224 18.4142 11.2565 18.3865 11.2667 18.3411C11.328 18.3675 11.3245 18.2566 11.3872 18.2864C11.3917 18.2898 11.3917 18.3037 11.3949 18.3127C11.4015 18.3557 11.4862 18.302 11.4708 18.3727Z" fill="#ECEFF4"/>
<path fill-rule="evenodd" clip-rule="evenodd" d="M10.9171 18.7746C10.8096 18.8116 10.8898 18.6831 10.8281 18.6841C10.8568 18.6602 10.8891 18.6155 10.9178 18.6172C10.9521 18.619 10.9836 18.6609 11.0151 18.6848C10.9682 18.7004 11.0176 18.8262 10.9171 18.7746Z" fill="#D9DFEA"/>
<path fill-rule="evenodd" clip-rule="evenodd" d="M15.0796 20.0002C14.9658 20.0515 15.0764 19.9 15.0004 19.9198C14.9927 19.8619 15.0876 19.8969 15.0757 19.8359L15.1783 19.9174C15.1367 19.9361 15.1783 20.0539 15.0796 20.0002Z" fill="#D8DEEA"/>
<path fill-rule="evenodd" clip-rule="evenodd" d="M15.8059 19.917C15.7117 19.9558 15.7695 19.8303 15.7188 19.8179C15.7531 19.796 15.7891 19.7728 15.8227 19.7503C15.8255 19.8016 15.8966 19.7829 15.9043 19.8283C15.8515 19.8314 15.9064 19.9443 15.8059 19.917ZM16.4607 19.4505C16.3536 19.5043 16.4327 19.3632 16.3714 19.3691C16.3837 19.3241 16.4541 19.341 16.4583 19.2891L16.5588 19.3636C16.4975 19.3618 16.5728 19.5105 16.4607 19.4505Z" fill="#DCE1EC"/>
<path fill-rule="evenodd" clip-rule="evenodd" d="M12.1219 18.8052C12.0099 18.8679 12.0831 18.7276 12.0312 18.7248C12.0365 18.6732 12.1156 18.6954 12.1191 18.6406C12.1296 18.6912 12.1976 18.6767 12.2123 18.7221C12.1454 18.7124 12.2406 18.8714 12.1219 18.8052Z" fill="#D4DAE7"/>
<path fill-rule="evenodd" clip-rule="evenodd" d="M12.5755 17.7515C12.5121 17.7473 12.5934 17.6486 12.5156 17.6548C12.5289 17.5994 12.5888 17.6108 12.6217 17.582C12.6385 17.617 12.6861 17.625 12.6886 17.6752C12.6942 17.7671 12.6119 17.7196 12.5755 17.7515Z" fill="#F2F4F7"/>
<path fill-rule="evenodd" clip-rule="evenodd" d="M14.4188 18.4854C14.3218 18.5405 14.3729 18.4175 14.3281 18.404C14.3586 18.3791 14.388 18.3538 14.4188 18.3281C14.4209 18.3794 14.52 18.368 14.492 18.4075C14.4752 18.431 14.5295 18.5388 14.4188 18.4854Z" fill="#E6E9F1"/>
<path fill-rule="evenodd" clip-rule="evenodd" d="M13.9823 18.1748C13.8717 18.1859 13.9858 18.0864 13.9141 18.0889C13.9421 18.0629 13.969 18.0185 14.0005 18.0157C14.0279 18.013 14.0594 18.057 14.0891 18.0812C14.0503 18.1183 14.0562 18.214 13.9823 18.1748Z" fill="#EAEDF3"/>
<path fill-rule="evenodd" clip-rule="evenodd" d="M16.672 18.9844C16.6947 19.044 16.7395 19.0519 16.7745 19.0731C16.7388 19.1129 16.7248 19.1739 16.6506 19.1739C16.5746 19.1746 16.6261 19.1174 16.6089 19.0908C16.5666 19.0242 16.7231 19.0804 16.672 18.9844Z" fill="#E4E8F0"/>
<path fill-rule="evenodd" clip-rule="evenodd" d="M15.8733 20.191C15.8467 20.2301 15.8649 20.2675 15.7941 20.2689C15.7133 20.2703 15.7392 20.2117 15.7357 20.1937C15.729 20.1639 15.7752 20.1355 15.8019 20.1414C15.825 20.1456 15.8698 20.1584 15.8733 20.191Z" fill="#CED5E4"/>
<path fill-rule="evenodd" clip-rule="evenodd" d="M12.0943 19.0795C12.0365 19.0861 12.0845 19.1609 12.0113 19.1585C11.9444 19.1564 11.9542 19.1117 11.9469 19.0847C11.9353 19.0469 11.9917 19.0479 12.0043 19.0195C12.0309 19.0379 12.0579 19.0563 12.0943 19.0795Z" fill="#DAE0EB"/>
<path fill-rule="evenodd" clip-rule="evenodd" d="M15.7188 19.4785C15.7436 19.4601 15.7685 19.4431 15.7947 19.4258C15.7968 19.4642 15.8805 19.4421 15.8525 19.4913C15.841 19.511 15.8693 19.5651 15.7968 19.5602C15.7317 19.5557 15.7471 19.5107 15.7188 19.4785Z" fill="#D8DEE9"/>
<path fill-rule="evenodd" clip-rule="evenodd" d="M15.454 19.5946C15.4414 19.6629 15.4022 19.674 15.3592 19.6819C15.286 19.6941 15.3409 19.6397 15.329 19.6189C15.2982 19.5669 15.376 19.5769 15.3851 19.543C15.4054 19.5693 15.4519 19.5686 15.454 19.5946Z" fill="#CBD2E3"/>
<path fill-rule="evenodd" clip-rule="evenodd" d="M15.0441 17.3482C15.0196 17.3596 15.0522 17.4175 14.9997 17.4009C14.9598 17.3874 14.9107 17.3686 14.9142 17.3201C14.9156 17.3014 14.9633 17.2858 14.9899 17.2695C14.9944 17.3045 15.0701 17.2931 15.0441 17.3482Z" fill="#D1D8E6"/>
<path fill-rule="evenodd" clip-rule="evenodd" d="M17.0288 18.8679C16.963 18.8935 16.9927 18.8398 16.9812 18.8242C16.9371 18.765 17.0242 18.7736 17.0288 18.7383C17.0558 18.756 17.1083 18.7761 17.1062 18.7913C17.1046 18.8111 17.096 18.8297 17.0818 18.8438C17.0676 18.8578 17.0488 18.8664 17.0288 18.8679Z" fill="#DADFEA"/>
<path fill-rule="evenodd" clip-rule="evenodd" d="M13.6402 18.3398C13.6402 18.38 13.7222 18.3641 13.6945 18.4143C13.6833 18.4348 13.7071 18.4895 13.6504 18.4781C13.6073 18.4694 13.5639 18.4445 13.5625 18.4022C13.5625 18.3825 13.6122 18.3613 13.6402 18.3398Z" fill="#CAD2E2"/>
<path fill-rule="evenodd" clip-rule="evenodd" d="M15.7199 17.7484C15.6796 17.7322 15.6779 17.6869 15.6805 17.6651C15.6849 17.6362 15.7299 17.5972 15.7684 17.613C15.792 17.6227 15.859 17.6171 15.8428 17.6696C15.8279 17.7199 15.7693 17.727 15.7199 17.7484Z" fill="#D0D7E5"/>
<path fill-rule="evenodd" clip-rule="evenodd" d="M16.1172 19.5308C16.1186 19.5304 16.1431 19.4968 16.1708 19.4961C16.1907 19.4954 16.211 19.5363 16.2324 19.5592C16.2037 19.5671 16.2282 19.6195 16.1715 19.6188C16.1203 19.6177 16.1203 19.5949 16.1172 19.5308Z" fill="#EFF2F6"/>
<path fill-rule="evenodd" clip-rule="evenodd" d="M13.8669 18.6538C13.8575 18.6912 13.8575 18.7144 13.8239 18.7137C13.7896 18.713 13.7728 18.7006 13.7735 18.6659C13.7735 18.6385 13.7917 18.6195 13.8123 18.6212C13.8361 18.6229 13.8701 18.6295 13.8669 18.6538Z" fill="#CCD4E3"/>
<path fill-rule="evenodd" clip-rule="evenodd" d="M11.7126 18.1172C11.7294 18.1352 11.7487 18.1494 11.756 18.1678C11.7623 18.183 11.7525 18.2062 11.7308 18.2087C11.7067 18.2107 11.6808 18.2101 11.6731 18.1803C11.6661 18.1511 11.6916 18.1408 11.7126 18.1172Z" fill="#E0E5EE"/>
<path fill-rule="evenodd" clip-rule="evenodd" d="M11.4666 18.3728C11.4572 18.3329 11.3948 18.3582 11.3906 18.3125C11.4039 18.3472 11.5079 18.2699 11.4666 18.3728Z" fill="#7085B1"/>
<path fill-rule="evenodd" clip-rule="evenodd" d="M11.1555 16.8704C11.1478 16.8277 11.0816 16.8614 11.0781 16.8125C11.0967 16.8416 11.1905 16.7726 11.1555 16.8704Z" fill="#5C75A7"/>
<path fill-rule="evenodd" clip-rule="evenodd" d="M15.038 16.5261C15.0447 16.4998 15.066 16.4568 15.0576 16.4489C14.9435 16.3484 15.0958 16.3314 15.1185 16.3109C15.1602 16.2711 15.1535 16.4391 15.2635 16.3328C15.2043 16.4627 15.1252 16.5001 15.0341 16.5223L15.038 16.5261Z" fill="#E7EAF2"/>
<path fill-rule="evenodd" clip-rule="evenodd" d="M11.6635 16.418C11.5521 16.4072 11.6512 16.2638 11.627 16.1806C11.5969 16.0732 11.6761 16.0746 11.7531 16.0742C11.8725 16.0735 11.9401 16.1234 11.9401 16.2482C11.9397 16.3709 11.8823 16.4194 11.6635 16.418Z" fill="#15A24A"/>
<path fill-rule="evenodd" clip-rule="evenodd" d="M15.9141 17.1086C15.8896 17.1827 15.7989 17.2292 15.7835 17.3206C15.7821 17.3328 15.7471 17.3303 15.7405 17.295C15.7124 17.1294 15.711 17.1297 15.5874 17.2184C15.5776 17.2257 15.5605 17.2323 15.551 17.2292C15.5328 17.2212 15.5255 17.2032 15.5363 17.1827C15.5773 17.1037 15.6158 17.0226 15.6617 16.946C15.6925 16.8954 15.7299 16.9377 15.7601 16.9523C15.8262 16.9845 15.9078 17.0029 15.9141 17.1086Z" fill="#13A248"/>
<path fill-rule="evenodd" clip-rule="evenodd" d="M16.2278 17.3788C16.1634 17.4044 16.1322 17.3562 16.0909 17.3389C16.0629 17.3271 16.0366 17.316 16.0177 17.3469C15.9971 17.3794 16.0177 17.3982 16.0461 17.4127C16.0678 17.4235 16.0909 17.4318 16.107 17.4488C16.1354 17.4782 16.2243 17.4702 16.1883 17.533C16.1599 17.5829 16.1123 17.5246 16.0808 17.5063C16.0265 17.4734 15.919 17.4553 15.9305 17.3982C15.9484 17.3063 16.0013 17.2065 16.0717 17.1435C16.128 17.0929 16.1904 17.1885 16.2537 17.2124C16.281 17.2225 16.3276 17.2315 16.3196 17.2741C16.3119 17.3181 16.2789 17.2925 16.2537 17.2866C16.1946 17.2731 16.1371 17.174 16.0906 17.2426C16.0626 17.2835 16.1778 17.3004 16.2142 17.3455C16.2198 17.3521 16.2212 17.3611 16.2278 17.3788ZM16.9824 17.8687C16.9929 17.9498 16.9596 18.0049 16.8738 17.9911C16.7849 17.9765 16.7173 17.9228 16.7019 17.8265C16.7005 17.8168 16.7124 17.797 16.7222 17.7942C16.7279 17.7924 16.7339 17.7918 16.7397 17.7925C16.7456 17.7932 16.7513 17.7952 16.7563 17.7983C16.7614 17.8014 16.7657 17.8056 16.7689 17.8105C16.7722 17.8154 16.7743 17.821 16.7751 17.8268C16.7863 17.893 16.8213 17.9225 16.8917 17.9238C16.9054 17.8154 16.7075 17.7658 16.8213 17.6532C16.8784 17.5967 16.9481 17.6435 16.9978 17.6889C17.0437 17.7301 17.0997 17.7755 17.016 17.8344C17.0041 17.8282 16.988 17.8181 16.9792 17.8251C16.9614 17.8369 16.9789 17.8538 16.9824 17.8687Z" fill="#11A147"/>
<path fill-rule="evenodd" clip-rule="evenodd" d="M14.5641 16.8385C14.5225 16.8153 14.5246 16.7931 14.5312 16.7689C14.5445 16.7172 14.5176 16.6902 14.47 16.6756C14.4223 16.6604 14.3856 16.6625 14.3726 16.7214C14.3681 16.7477 14.3541 16.7661 14.325 16.7564C14.2914 16.7443 14.3082 16.7172 14.3145 16.6975C14.3278 16.6521 14.3397 16.6063 14.3607 16.563C14.3796 16.5197 14.3663 16.4404 14.4353 16.4456C14.5085 16.4508 14.5876 16.4681 14.6433 16.528C14.6681 16.5544 14.6783 16.5998 14.658 16.6195C14.5988 16.6798 14.6037 16.7651 14.5641 16.8385Z" fill="#0FA046"/>
<path fill-rule="evenodd" clip-rule="evenodd" d="M12.403 16.3982C12.2899 16.4404 12.2006 16.4158 12.1134 16.4176C12.0738 16.4186 12.0703 16.3892 12.0703 16.3594C12.0731 16.3264 12.0731 16.2932 12.0731 16.2602C12.0773 16.0776 12.1428 16.0308 12.3242 16.0818C12.3445 16.0873 12.3637 16.0908 12.3651 16.1133C12.3651 16.1445 12.3424 16.1501 12.3144 16.1494C12.3105 16.1487 12.306 16.1476 12.3011 16.1483C12.2468 16.1615 12.1494 16.1008 12.1477 16.1812C12.1456 16.2429 12.2517 16.1993 12.306 16.2201C12.3137 16.2232 12.3221 16.2301 12.334 16.2388C12.2997 16.3001 12.2426 16.2658 12.1985 16.2731C12.1722 16.2772 12.1379 16.2658 12.134 16.3081C12.1291 16.358 12.1642 16.3555 12.1985 16.359C12.2569 16.3659 12.3203 16.3441 12.403 16.3982Z" fill="#0B9F43"/>
<path fill-rule="evenodd" clip-rule="evenodd" d="M11.4705 16.4215C11.4096 16.4083 11.418 16.3737 11.4075 16.3494C11.3893 16.3047 11.3532 16.3047 11.3137 16.3078C11.2685 16.312 11.244 16.3293 11.2478 16.3789C11.2506 16.4031 11.2604 16.4423 11.2149 16.4367C11.1757 16.4319 11.1869 16.3941 11.1848 16.3685C11.1813 16.3265 11.1771 16.2836 11.1813 16.242C11.1869 16.1956 11.1421 16.1245 11.2097 16.1079C11.2793 16.0899 11.3599 16.077 11.4324 16.1114C11.4639 16.1263 11.4887 16.1626 11.4772 16.1921C11.4506 16.2662 11.4716 16.3414 11.4705 16.4215Z" fill="#079D3F"/>
<path fill-rule="evenodd" clip-rule="evenodd" d="M10.7344 16.3074C10.7456 16.2135 10.7872 16.1373 10.8912 16.1407C10.991 16.1439 11.0443 16.2125 11.0443 16.3112C11.0443 16.4093 10.998 16.4769 10.8926 16.4762C10.7855 16.4755 10.7491 16.3986 10.7344 16.3074Z" fill="#15A24A"/>
<path fill-rule="evenodd" clip-rule="evenodd" d="M17.4019 18.067C17.3921 18.1602 17.3455 18.2305 17.238 18.2399C17.1389 18.2479 17.0864 18.1917 17.0787 18.0996C17.0699 18.0063 17.1624 17.9173 17.2566 17.918C17.3392 17.9187 17.3998 17.9779 17.4019 18.067Z" fill="#11A147"/>
<path fill-rule="evenodd" clip-rule="evenodd" d="M15.4333 16.9802C15.5124 17.0433 15.4165 17.0849 15.413 17.1379C15.3471 17.1077 15.2648 17.1199 15.2116 17.0627C15.1549 17.0017 15.1654 16.9327 15.2025 16.8655C15.2435 16.7945 15.3065 16.764 15.3839 16.791C15.4546 16.816 15.5075 16.8631 15.4732 16.9518C15.4189 16.9615 15.3744 16.8908 15.2981 16.9383C15.3489 16.9615 15.4098 16.9293 15.4333 16.9802Z" fill="#0C9F43"/>
<path fill-rule="evenodd" clip-rule="evenodd" d="M13.532 16.2671C13.4858 16.3208 13.4518 16.3 13.4199 16.3007C13.3891 16.3007 13.3562 16.2754 13.318 16.3069C13.3524 16.3623 13.4353 16.3267 13.4676 16.3818C13.463 16.3897 13.4609 16.4005 13.455 16.406C13.4087 16.442 13.3349 16.3547 13.3061 16.4268C13.2799 16.4888 13.3489 16.4673 13.3786 16.4777C13.4122 16.4909 13.4539 16.4861 13.4945 16.5311C13.4003 16.572 13.2879 16.5529 13.2491 16.5079C13.1878 16.4368 13.2309 16.3107 13.2774 16.2476C13.3324 16.1731 13.4329 16.2459 13.532 16.2671Z" fill="#19A44D"/>
<path fill-rule="evenodd" clip-rule="evenodd" d="M14.1254 16.5698C14.046 16.5615 13.9556 16.5061 13.9329 16.6357C13.9322 16.6398 13.9045 16.6457 13.8961 16.6402C13.8866 16.635 13.8814 16.6156 13.8831 16.6045C13.9038 16.5224 13.9143 16.4343 13.9511 16.3605C13.9938 16.2774 14.0663 16.3477 14.1261 16.3557C14.1976 16.365 14.2371 16.408 14.2294 16.4825C14.2224 16.5466 14.1734 16.5639 14.1254 16.5698Z" fill="#0D9F44"/>
<path fill-rule="evenodd" clip-rule="evenodd" d="M15.0756 16.7691C15.0679 16.8734 15.016 16.9455 14.9106 16.9486C14.8165 16.9521 14.7636 16.8866 14.7657 16.7937C14.7685 16.6932 14.8179 16.6204 14.9275 16.6173C15.0279 16.6139 15.0668 16.6807 15.0756 16.7691Z" fill="#0FA046"/>
<path fill-rule="evenodd" clip-rule="evenodd" d="M12.7144 16.3895C12.7029 16.4141 12.6934 16.4491 12.6602 16.4412C12.6024 16.4276 12.6283 16.3725 12.6143 16.3365C12.5716 16.2953 12.5828 16.3521 12.5695 16.3625C12.5646 16.3881 12.5765 16.4273 12.5415 16.4325C12.4984 16.4377 12.5085 16.3968 12.5096 16.3725C12.5131 16.322 12.5138 16.2689 12.5278 16.2204C12.5401 16.1788 12.4956 16.1023 12.5793 16.1016C12.6532 16.1012 12.637 16.1757 12.6465 16.2204C12.6563 16.2717 12.6616 16.2935 12.7039 16.2426C12.7477 16.2312 12.7568 16.2627 12.7669 16.2932C12.7726 16.3375 12.7526 16.3684 12.7144 16.3895Z" fill="#0EA044"/>
<path fill-rule="evenodd" clip-rule="evenodd" d="M16.4426 17.6631C16.4685 17.6631 16.4948 17.6971 16.52 17.668C16.5392 17.6461 16.5221 17.6246 16.5049 17.607C16.4923 17.5935 16.479 17.5806 16.4671 17.5661C16.4314 17.5235 16.3813 17.4826 16.4307 17.4209C16.4755 17.3644 16.5277 17.3783 16.5795 17.414C16.5889 17.432 16.5858 17.4493 16.576 17.4656C16.5378 17.5249 16.6089 17.5609 16.6075 17.6115C16.6184 17.659 16.6254 17.7068 16.5725 17.7342C16.5067 17.7688 16.4559 17.7369 16.4076 17.6953C16.4023 17.668 16.4125 17.6545 16.4426 17.6631Z" fill="#10A146"/>
<path fill-rule="evenodd" clip-rule="evenodd" d="M15.4325 16.9818C15.4056 17.0005 15.3513 16.9399 15.353 16.9856C15.3566 17.0667 15.3156 17.0594 15.2774 17.0355C15.2259 17.004 15.2231 16.9499 15.2557 16.9C15.2872 16.8512 15.3317 16.8228 15.3856 16.8626C15.4185 16.8865 15.4434 16.9226 15.4717 16.9534L15.4325 16.9818Z" fill="#ECF7F0"/>
<path fill-rule="evenodd" clip-rule="evenodd" d="M12.7367 16.3082C12.7265 16.2868 12.7153 16.2659 12.7031 16.2455C12.7154 16.2147 12.7266 16.1835 12.7413 16.1537C12.7546 16.1256 12.7777 16.11 12.8103 16.1204C12.8467 16.1326 12.8439 16.1603 12.8418 16.1894C12.8341 16.2743 12.8271 16.3588 12.8204 16.4437C12.7693 16.476 12.7563 16.4465 12.7479 16.4028C12.7416 16.3713 12.7581 16.3373 12.7367 16.3082Z" fill="#17A34C"/>
<path fill-rule="evenodd" clip-rule="evenodd" d="M16.6136 17.6127C16.5821 17.5808 16.5484 17.5507 16.519 17.5167C16.4847 17.4765 16.498 17.4519 16.5491 17.4453C16.623 17.4616 16.6682 17.4969 16.6465 17.5808C16.6363 17.5912 16.6251 17.6023 16.6136 17.6127Z" fill="#D7EFE0"/>
<path fill-rule="evenodd" clip-rule="evenodd" d="M16.6442 17.5797C16.6103 17.536 16.6011 17.4737 16.5469 17.4442L16.5833 17.4141C16.6421 17.4553 16.7496 17.4789 16.6442 17.5797Z" fill="#2BAB5B"/>
<path fill-rule="evenodd" clip-rule="evenodd" d="M16.9833 17.8709C16.9788 17.8681 16.9728 17.8667 16.9707 17.8629C16.9427 17.8116 16.8499 17.7655 16.8814 17.7201C16.921 17.6654 16.9623 17.7302 16.984 17.777C16.9938 17.7967 17.0057 17.8161 17.017 17.8366C17.0054 17.848 16.9938 17.8594 16.9833 17.8709Z" fill="#E6F5EC"/>
<path fill-rule="evenodd" clip-rule="evenodd" d="M16.4452 17.6645C16.434 17.6753 16.4231 17.6864 16.4102 17.6971C16.3954 17.6867 16.3751 17.6794 16.3657 17.6645C16.3478 17.6309 16.2967 17.5862 16.3559 17.5599C16.4056 17.5363 16.4056 17.599 16.4217 17.6295C16.4284 17.6423 16.4368 17.6531 16.4452 17.6645Z" fill="#29AA59"/>
<path fill-rule="evenodd" clip-rule="evenodd" d="M12.7422 16.3086C12.7933 16.3283 12.7664 16.3706 12.7671 16.4022C12.7699 16.4455 12.7853 16.46 12.8262 16.4448C12.7408 16.5266 12.7517 16.4174 12.7188 16.3931C12.7275 16.3644 12.7342 16.3363 12.7422 16.3086Z" fill="#DDF1E4"/>
<path fill-rule="evenodd" clip-rule="evenodd" d="M12.5625 16.3655V16.2539C12.6108 16.2692 12.6122 16.3028 12.6073 16.3395C12.5926 16.3482 12.5772 16.3565 12.5625 16.3655Z" fill="#6FC690"/>
<path fill-rule="evenodd" clip-rule="evenodd" d="M11.6953 16.2518C11.7002 16.2012 11.6757 16.1354 11.7629 16.141C11.8266 16.1448 11.8728 16.1701 11.8763 16.2421C11.8798 16.3198 11.834 16.3513 11.7615 16.3565C11.6694 16.3638 11.7069 16.292 11.6953 16.2518Z" fill="#F5FBF7"/>
<path fill-rule="evenodd" clip-rule="evenodd" d="M15.7327 17.0127C15.7691 17.0325 15.8248 17.0363 15.8367 17.0897C15.8426 17.1174 15.8184 17.1358 15.7936 17.1278C15.7474 17.1139 15.6861 17.1132 15.6798 17.0488C15.678 17.0301 15.6983 17.0065 15.7327 17.0127Z" fill="#EFF8F3"/>
<path fill-rule="evenodd" clip-rule="evenodd" d="M14.5982 16.5847C14.5887 16.6208 14.5632 16.6333 14.5337 16.6225C14.4942 16.6083 14.4304 16.6239 14.4297 16.5553C14.4283 16.5196 14.4529 16.5089 14.4858 16.5196C14.5292 16.5335 14.5817 16.5317 14.5982 16.5847Z" fill="#DEF2E5"/>
<path fill-rule="evenodd" clip-rule="evenodd" d="M11.3249 16.1602C11.3592 16.1643 11.4135 16.1463 11.41 16.2042C11.4065 16.2548 11.3546 16.2468 11.3175 16.2475C11.2878 16.2485 11.2451 16.2638 11.2423 16.2107C11.2402 16.1477 11.2899 16.1674 11.3249 16.1602Z" fill="#F3FAF5"/>
<path fill-rule="evenodd" clip-rule="evenodd" d="M10.88 16.207C10.9434 16.2112 10.9749 16.2486 10.9773 16.3075C10.9808 16.3602 10.9546 16.4052 10.8999 16.4101C10.8369 16.416 10.8086 16.3685 10.8051 16.3106C10.8016 16.2573 10.8226 16.2185 10.88 16.207Z" fill="#F3FAF6"/>
<path fill-rule="evenodd" clip-rule="evenodd" d="M17.33 18.0786C17.3209 18.1362 17.2859 18.1767 17.2183 18.1767C17.164 18.176 17.1437 18.1369 17.1493 18.0894C17.1546 18.0249 17.1935 17.9834 17.2596 17.9844C17.3118 17.9858 17.3321 18.0229 17.33 18.0786Z" fill="#F9FCFA"/>
<path fill-rule="evenodd" clip-rule="evenodd" d="M14.0487 16.397C14.0841 16.4185 14.1552 16.3963 14.1653 16.4656C14.1685 16.492 14.1391 16.5055 14.1156 16.5003C14.0698 16.4902 14.0057 16.5065 14.0001 16.4334C13.999 16.4109 14.0092 16.3866 14.0487 16.397Z" fill="#E7F5EC"/>
<path fill-rule="evenodd" clip-rule="evenodd" d="M15.0048 16.7764C14.9982 16.8364 14.9684 16.8783 14.9071 16.8783C14.8469 16.879 14.8256 16.8374 14.8284 16.7827C14.8333 16.7224 14.8679 16.6822 14.9271 16.6798C14.9859 16.6777 15.0048 16.7241 15.0048 16.7764Z" fill="#F5FBF7"/>
</g>
<defs>
<filter id="filter0_d_1034_26404" x="2.24219" y="9.71875" width="25.5234" height="18" filterUnits="userSpaceOnUse" color-interpolation-filters="sRGB">
<feFlood flood-opacity="0" result="BackgroundImageFix"/>
<feColorMatrix in="SourceAlpha" type="matrix" values="0 0 0 0 0 0 0 0 0 0 0 0 0 0 0 0 0 0 127 0" result="hardAlpha"/>
<feOffset dx="1" dy="1"/>
<feGaussianBlur stdDeviation="0.5"/>
<feComposite in2="hardAlpha" operator="out"/>
<feColorMatrix type="matrix" values="0 0 0 0 0 0 0 0 0 0 0 0 0 0 0 0 0 0 0.3 0"/>
<feBlend mode="normal" in2="BackgroundImageFix" result="effect1_dropShadow_1034_26404"/>
<feBlend mode="normal" in="SourceGraphic" in2="effect1_dropShadow_1034_26404" result="shape"/>
</filter>
<clipPath id="clip0_1034_26404">
<rect width="27.52" height="20" fill="white" transform="translate(0.242188 7.71875)"/>
</clipPath>
</defs>
</svg>
