<svg width="128" height="122" viewBox="0 0 128 122" fill="none" xmlns="http://www.w3.org/2000/svg">
<path d="M40.8455 24.6758C41.2389 24.4511 41.7218 24.4511 42.1152 24.6758L76.1182 44.0967C76.5171 44.3245 76.7634 44.7487 76.7634 45.2081V84.0142C76.7634 84.4736 76.5171 84.8978 76.1182 85.1256L42.1152 104.547C41.7218 104.771 41.2389 104.771 40.8455 104.547L6.84248 85.1256C6.44354 84.8978 6.19731 84.4736 6.19731 84.0142V45.2081C6.19731 44.7487 6.44354 44.3245 6.84249 44.0967L40.8455 24.6758Z" stroke="#FCFCFC" stroke-width="1.28"/>
<path d="M63.8979 10.6011L80.7825 0.741133L97.667 10.6011V30.3336L80.7825 40.1935L63.8979 30.3336V10.6011Z" stroke="#FCFCFC" stroke-width="1.28"/>
<path d="M61.1869 99.5528L74.0373 92.4328L86.8877 99.5528V113.748L74.0373 120.868L61.1869 113.748V99.5528Z" stroke="#FCFCFC" stroke-width="1.28"/>
<path d="M82.4508 80.1725L88.1123 77.1753L93.7737 80.1725V86.0738L88.1123 89.0709L82.4508 86.0738V80.1725Z" stroke="#FCFCFC" stroke-width="1.28"/>
<path d="M116.846 79.8631L121.68 77.183L126.513 79.8631V85.1792L121.68 87.8593L116.846 85.1792V79.8631Z" stroke="#FCFCFC" stroke-width="1.28"/>
<path d="M86.0959 50.6924L102.29 41.6682L118.485 50.6924V68.7021L102.29 77.7263L86.0959 68.7021V50.6924Z" stroke="#FCFCFC" stroke-width="1.28"/>
<path d="M21.1484 43.8933C21.1484 43.1864 21.7215 42.6133 22.4284 42.6133H59.9382C60.6451 42.6133 61.2182 43.1864 61.2182 43.8933V51.524C61.2182 52.231 60.6451 52.804 59.9382 52.804H46.4703C45.7634 52.804 45.1903 53.3771 45.1903 54.0841V62.3056C45.1903 63.0125 45.7634 63.5856 46.4703 63.5856H59.0177C59.7246 63.5856 60.2977 64.1587 60.2977 64.8656V72.7425C60.2977 73.4494 59.7246 74.0225 59.0177 74.0225H46.4703C45.7634 74.0225 45.1903 74.5956 45.1903 75.3025V88.1025C45.1903 88.8094 44.6172 89.3825 43.9103 89.3825H35.6948C34.9879 89.3825 34.4148 88.8094 34.4148 88.1025V54.084C34.4148 53.3771 33.8417 52.804 33.1348 52.804H22.4284C21.7215 52.804 21.1484 52.231 21.1484 51.524V43.8933Z" fill="#FCFCFC"/>
</svg>
