<svg width="50" height="51" viewBox="0 0 50 51" fill="none" xmlns="http://www.w3.org/2000/svg">
<g id="Icon">
<path id="Vector" d="M15.7813 11.0323C16.0406 10.8765 16.3681 10.8765 16.6273 11.0323L29.3554 18.6846C29.5948 18.8286 29.7367 19.0815 29.7367 19.3498V34.7854C29.7367 35.0536 29.5948 35.3066 29.3554 35.4505L16.6273 43.1028C16.3681 43.2587 16.0406 43.2587 15.7813 43.1028L3.05325 35.4505C2.81382 35.3066 2.67188 35.0536 2.67188 34.7854V19.3498C2.67188 19.0815 2.81382 18.8286 3.05325 18.6846L15.7813 11.0323ZM31.557 1.08691L37.9025 4.98748V12.8442L31.557 16.7448L25.2115 12.8442V4.98748L31.557 1.08691ZM24.1525 41.5669L28.9222 38.7851L33.6919 41.5669V47.1394L28.9222 49.9212L24.1525 47.1394V41.5669ZM32.4585 33.6011L34.42 32.508L36.3815 33.6011V35.757L34.42 36.85L32.4585 35.757V33.6011ZM45.8941 33.4707L47.5322 32.5146L49.1703 33.4707V35.3923L47.5322 36.3484L45.8941 35.3923V33.4707ZM33.8835 21.4752L39.9595 17.9113L46.0356 21.4752V28.617L39.9595 32.181L33.8835 28.617V21.4752Z" stroke="url(#paint0_radial_383_222)" stroke-opacity="0.9"/>
<path id="Rectangle 441" d="M8.25781 19.0195C8.25781 18.4672 8.70553 18.0195 9.25781 18.0195H22.9101C23.4624 18.0195 23.9101 18.4672 23.9101 19.0195V21.2098C23.9101 21.7621 23.4624 22.2098 22.9101 22.2098H18.6492C18.0969 22.2098 17.6492 22.6575 17.6492 23.2098V25.643C17.6492 26.1953 18.0969 26.643 18.6492 26.643H22.5505C23.1028 26.643 23.5505 27.0907 23.5505 27.643V29.9345C23.5505 30.4868 23.1028 30.9345 22.5505 30.9345H18.6492C18.0969 30.9345 17.6492 31.3822 17.6492 31.9345V36.2503C17.6492 36.8026 17.2015 37.2503 16.6492 37.2503H14.44C13.8877 37.2503 13.44 36.8026 13.44 36.2503V23.2098C13.44 22.6575 12.9923 22.2098 12.44 22.2098H9.25781C8.70553 22.2098 8.25781 21.7621 8.25781 21.2098V19.0195Z" fill="url(#paint1_radial_383_222)" fill-opacity="0.9"/>
</g>
<defs>
<radialGradient id="paint0_radial_383_222" cx="0" cy="0" r="1" gradientUnits="userSpaceOnUse" gradientTransform="translate(46.9669 50.4608) rotate(-171.29) scale(60.8966 40.5359)">
<stop stop-color="#E100F4"/>
<stop offset="0.427083" stop-color="#F14271"/>
<stop offset="1" stop-color="#FF7A00"/>
</radialGradient>
<radialGradient id="paint1_radial_383_222" cx="0" cy="0" r="1" gradientUnits="userSpaceOnUse" gradientTransform="translate(37.3884 35.1135) rotate(148.995) scale(44.3852 34.4806)">
<stop offset="0.160602" stop-color="#E100F4"/>
<stop offset="1" stop-color="#FF7A00"/>
</radialGradient>
</defs>
</svg>
