<svg width="20" height="21" viewBox="0 0 20 21" fill="none" xmlns="http://www.w3.org/2000/svg">
<path id="Vector" d="M4 12.5H12V10.5H4V12.5ZM4 9.5H16V7.5H4V9.5ZM4 6.5H16V4.5H4V6.5ZM0 20.5V2.5C0 1.95 0.196 1.479 0.588 1.087C0.98 0.695002 1.45067 0.499335 2 0.500002H18C18.55 0.500002 19.021 0.696002 19.413 1.088C19.805 1.48 20.0007 1.95067 20 2.5V14.5C20 15.05 19.804 15.521 19.412 15.913C19.02 16.305 18.5493 16.5007 18 16.5H4L0 20.5ZM3.15 14.5H18V2.5H2V15.625L3.15 14.5Z" fill="black" fill-opacity="0.5"/>
</svg>
