<svg width="20" height="21" viewBox="0 0 20 21" fill="none" xmlns="http://www.w3.org/2000/svg">
<path d="M4 12.2188H12V10.2188H4V12.2188ZM4 9.21875H16V7.21875H4V9.21875ZM4 6.21875H16V4.21875H4V6.21875ZM0 20.2188V2.21875C0 1.66875 0.196 1.19775 0.588 0.805752C0.98 0.413752 1.45067 0.218085 2 0.218752H18C18.55 0.218752 19.021 0.414752 19.413 0.806752C19.805 1.19875 20.0007 1.66942 20 2.21875V14.2188C20 14.7688 19.804 15.2398 19.412 15.6318C19.02 16.0238 18.5493 16.2194 18 16.2188H4L0 20.2188ZM3.15 14.2188H18V2.21875H2V15.3438L3.15 14.2188Z" fill="white" fill-opacity="0.5"/>
</svg>
