<svg width="22" height="23" viewBox="0 0 22 23" fill="none" xmlns="http://www.w3.org/2000/svg">
<path d="M10.6356 0.175781C9.89114 0.175781 9.30618 0.783084 9.30618 1.55601C9.30618 2.32894 9.89114 2.93625 10.6356 2.93625C11.3801 2.93625 11.9651 2.32894 11.9651 1.55601C11.9651 0.783084 11.3801 0.175781 10.6356 0.175781ZM3.98836 2.93625C3.24387 2.93625 2.65891 3.54355 2.65891 4.31648C2.65891 5.08941 3.24387 5.69671 3.98836 5.69671C4.73286 5.69671 5.31782 5.08941 5.31782 4.31648C5.31782 3.54355 4.73286 2.93625 3.98836 2.93625ZM17.2829 2.93625C16.5384 2.93625 15.9535 3.54355 15.9535 4.31648C15.9535 5.08941 16.5384 5.69671 17.2829 5.69671C18.0274 5.69671 18.6124 5.08941 18.6124 4.31648C18.6124 3.54355 18.0274 2.93625 17.2829 2.93625ZM10.6356 5.69671C7.71084 5.69671 5.31782 8.18113 5.31782 11.2176C5.31782 14.2542 7.71084 16.7386 10.6356 16.7386C13.5604 16.7386 15.9535 14.2542 15.9535 11.2176C15.9535 8.18113 13.5604 5.69671 10.6356 5.69671ZM1.32945 9.83741C0.58496 9.83741 0 10.4447 0 11.2176C0 11.9906 0.58496 12.5979 1.32945 12.5979C2.07395 12.5979 2.65891 11.9906 2.65891 11.2176C2.65891 10.4447 2.07395 9.83741 1.32945 9.83741ZM19.9418 9.83741C19.1973 9.83741 18.6124 10.4447 18.6124 11.2176C18.6124 11.9906 19.1973 12.5979 19.9418 12.5979C20.6863 12.5979 21.2713 11.9906 21.2713 11.2176C21.2713 10.4447 20.6863 9.83741 19.9418 9.83741ZM3.98836 16.7386C3.24387 16.7386 2.65891 17.3459 2.65891 18.1188C2.65891 18.8917 3.24387 19.499 3.98836 19.499C4.73286 19.499 5.31782 18.8917 5.31782 18.1188C5.31782 17.3459 4.73286 16.7386 3.98836 16.7386ZM17.2829 16.7386C16.5384 16.7386 15.9535 17.3459 15.9535 18.1188C15.9535 18.8917 16.5384 19.499 17.2829 19.499C18.0274 19.499 18.6124 18.8917 18.6124 18.1188C18.6124 17.3459 18.0274 16.7386 17.2829 16.7386ZM10.6356 19.499C9.89114 19.499 9.30618 20.1063 9.30618 20.8793C9.30618 21.6522 9.89114 22.2595 10.6356 22.2595C11.3801 22.2595 11.9651 21.6522 11.9651 20.8793C11.9651 20.1063 11.3801 19.499 10.6356 19.499Z" fill="#FCFCFC"/>
</svg>
