<svg width="25" height="24" viewBox="0 0 25 24" fill="none" xmlns="http://www.w3.org/2000/svg">
<path d="M11.5 4.99919H6.5C5.96957 4.99919 5.46086 5.2099 5.08579 5.58497C4.71071 5.96004 4.5 6.46875 4.5 6.99919V17.9992C4.5 18.5296 4.71071 19.0383 5.08579 19.4134C5.46086 19.7885 5.96957 19.9992 6.5 19.9992H17.5C18.0304 19.9992 18.5391 19.7885 18.9142 19.4134C19.2893 19.0383 19.5 18.5296 19.5 17.9992V12.9992M18.086 3.58519C18.2705 3.39417 18.4912 3.2418 18.7352 3.13698C18.9792 3.03216 19.2416 2.97699 19.5072 2.97468C19.7728 2.97238 20.0361 3.02298 20.2819 3.12354C20.5277 3.2241 20.751 3.37261 20.9388 3.5604C21.1266 3.74818 21.2751 3.97148 21.3756 4.21728C21.4762 4.46307 21.5268 4.72643 21.5245 4.99199C21.5222 5.25755 21.467 5.51999 21.3622 5.76399C21.2574 6.008 21.105 6.22869 20.914 6.41319L12.328 14.9992H9.5V12.1712L18.086 3.58519Z" stroke="#F04A94" stroke-linecap="round" stroke-linejoin="round"/>
</svg>
