<svg width="25" height="23" viewBox="0 0 25 23" fill="none" xmlns="http://www.w3.org/2000/svg">
<path d="M20.35 9.20776V7.82515C20.35 4.83871 19.5375 0.878906 12.5 0.878906C5.4625 0.878906 4.65 4.83871 4.65 7.82515V9.20776C1.15 9.59489 0 11.1655 0 15.0258V17.0831C0 21.6181 1.5625 23.0007 6.6875 23.0007H18.3125C23.4375 23.0007 25 21.6181 25 17.0831V15.0258C25 11.1655 23.85 9.59489 20.35 9.20776ZM12.5 19.3948C10.4125 19.3948 8.725 17.8906 8.725 16.0545C8.725 14.2073 10.425 12.7141 12.5 12.7141C14.575 12.7141 16.275 14.2183 16.275 16.0545C16.275 17.9016 14.5875 19.3948 12.5 19.3948ZM6.6875 9.10821C6.5875 9.10821 6.5 9.10821 6.4 9.10821V7.82515C6.4 4.58431 7.4375 2.42743 12.5 2.42743C17.5625 2.42743 18.6 4.58431 18.6 7.82515V9.11927C18.5 9.11927 18.4125 9.11927 18.3125 9.11927H6.6875V9.10821Z" fill="#333333"/>
</svg>
