<svg width="21" height="22" viewBox="0 0 21 22" fill="none" xmlns="http://www.w3.org/2000/svg">
<path d="M17.094 8.283V6.908C17.094 3.938 16.4115 0 10.5 0C4.5885 0 3.906 3.938 3.906 6.908V8.283C0.966 8.668 0 10.23 0 14.069V16.115C0 20.625 1.3125 22 5.6175 22H15.3825C19.6875 22 21 20.625 21 16.115V14.069C21 10.23 20.034 8.668 17.094 8.283ZM10.5 18.414C8.7465 18.414 7.329 16.918 7.329 15.092C7.329 13.255 8.757 11.77 10.5 11.77C12.243 11.77 13.671 13.266 13.671 15.092C13.671 16.929 12.2535 18.414 10.5 18.414ZM5.6175 8.184C5.5335 8.184 5.46 8.184 5.376 8.184V6.908C5.376 3.685 6.2475 1.54 10.5 1.54C14.7525 1.54 15.624 3.685 15.624 6.908V8.195C15.54 8.195 15.4665 8.195 15.3825 8.195H5.6175V8.184Z" fill="#333333"/>
</svg>
