<svg width="18" height="19" viewBox="0 0 18 19" fill="none" xmlns="http://www.w3.org/2000/svg">
<path d="M17.958 12.5438C18.162 12.0578 17.579 11.6438 17.09 11.8598C16.1126 12.2889 15.0565 12.5095 13.989 12.5078C9.804 12.5078 6.412 9.18381 6.412 5.08281C6.41047 3.69815 6.80385 2.34178 7.546 1.17281C7.83 0.724809 7.489 0.104809 6.969 0.236809C2.96 1.25981 0 4.83181 0 9.08081C0 14.1278 4.175 18.2188 9.326 18.2188C13.226 18.2188 16.566 15.8738 17.958 12.5438Z" fill="#F04A94"/>
<path d="M12.6144 0.321543C12.0844 -0.0324565 11.4524 0.599544 11.8054 1.12954L12.4354 2.07454C12.691 2.45771 12.8274 2.90797 12.8274 3.36854C12.8274 3.82912 12.691 4.27938 12.4354 4.66254L11.8054 5.60754C11.4524 6.13754 12.0854 6.76954 12.6154 6.41554L13.5594 5.78554C13.9426 5.52998 14.3929 5.39359 14.8534 5.39359C15.314 5.39359 15.7643 5.52998 16.1474 5.78554L17.0924 6.41554C17.6224 6.76954 18.2544 6.13754 17.9004 5.60754L17.2704 4.66254C17.0149 4.27938 16.8785 3.82912 16.8785 3.36854C16.8785 2.90797 17.0149 2.45771 17.2704 2.07454L17.9004 1.12954C18.2544 0.599544 17.6224 -0.0324565 17.0914 0.321543L16.1474 0.951544C15.7643 1.20711 15.314 1.34349 14.8534 1.34349C14.3929 1.34349 13.9426 1.20711 13.5594 0.951544L12.6144 0.321543Z" fill="#F04A94"/>
</svg>
