<svg version="1.0" xmlns="http://www.w3.org/2000/svg"
 width="512.000000pt" height="512.000000pt" viewBox="0 0 512.000000 512.000000"
 preserveAspectRatio="xMidYMid meet">
<g transform="translate(0.000000,512.000000) scale(0.100000,-0.100000)"
fill="#000000" stroke="none">
<path d="M3485 5105 c-210 -33 -409 -118 -571 -243 -102 -78 -2310 -2288
-2324 -2325 -24 -65 -5 -141 46 -189 53 -49 115 -60 182 -33 26 11 366 344
1157 1134 616 615 1143 1134 1170 1153 74 52 183 104 282 135 79 24 103 27
243 27 140 0 164 -3 245 -28 324 -99 553 -342 631 -671 25 -104 22 -286 -5
-398 -23 -98 -70 -206 -127 -294 -53 -83 -2837 -2869 -2921 -2924 -83 -55
-185 -89 -287 -96 -116 -8 -203 9 -313 62 -274 133 -403 443 -307 734 14 41
37 95 51 120 32 57 2289 2321 2348 2356 65 38 145 51 218 36 154 -32 246 -140
255 -296 8 -151 69 -79 -888 -1040 -467 -467 -855 -864 -864 -882 -36 -72 -12
-162 57 -217 33 -26 47 -31 95 -31 41 0 67 6 92 22 60 38 1712 1701 1755 1768
91 140 127 344 90 509 -28 128 -84 228 -184 326 -141 140 -277 195 -476 194
-89 -1 -125 -6 -188 -27 -174 -56 -118 -5 -1373 -1261 -1250 -1250 -1222
-1219 -1297 -1406 -43 -109 -56 -161 -66 -274 -44 -465 254 -892 707 -1013 84
-23 117 -26 247 -26 166 0 237 14 376 73 168 71 140 44 1670 1577 1525 1527
1485 1485 1578 1671 44 87 87 221 106 327 21 117 21 323 0 440 -106 592 -633
1030 -1235 1024 -52 -1 -131 -7 -175 -14z"/>
</g>
</svg>
