<svg width="98" height="98" viewBox="0 0 98 98" fill="none"
  xmlns="http://www.w3.org/2000/svg">
  <g id="Group">
    <path id="Vector" fill-rule="evenodd" clip-rule="evenodd" d="M32.4241 53.3267C31.2771 52.1783 30.6328 50.6215 30.6328 48.9984C30.6328 47.3752 31.2771 45.8185 32.4241 44.67L55.5194 21.5665C56.6685 20.4181 58.2267 19.7731 59.8512 19.7734C60.6557 19.7736 61.4522 19.9323 62.1953 20.2403C62.9384 20.5483 63.6135 20.9996 64.1822 21.5686C64.7509 22.1375 65.2019 22.8129 65.5096 23.5562C65.8173 24.2994 65.9755 25.096 65.9753 25.9004C65.9751 26.7048 65.8165 27.5013 65.5085 28.2444C65.2005 28.9875 64.7491 29.6627 64.1802 30.2314L45.4132 48.9984L64.1802 67.7654C64.7654 68.3301 65.2324 69.0058 65.5537 69.7529C65.8751 70.5 66.0444 71.3036 66.0519 72.1169C66.0593 72.9302 65.9047 73.7368 65.5971 74.4897C65.2895 75.2425 64.835 75.9266 64.2602 76.502C63.6854 77.0773 63.0017 77.5325 62.2491 77.8408C61.4965 78.1491 60.6901 78.3045 59.8768 78.2978C59.0635 78.2911 58.2597 78.1225 57.5123 77.8019C56.7649 77.4812 56.0888 77.0149 55.5235 76.4302L32.4159 53.3267H32.4241Z" fill="#F04A94"/>
  </g>
</svg>
