<svg width="115" height="117" viewBox="0 0 115 117" fill="none" xmlns="http://www.w3.org/2000/svg">
<path d="M67.5846 81.9339L68.1064 82.787L67.5846 81.9339L38.3102 99.8402C37.6696 100.232 36.8636 100.232 36.223 99.8402L6.94859 81.9339C6.35448 81.5705 5.99219 80.9242 5.99219 80.2278V44.1085C5.99219 43.412 6.35448 42.7657 6.94859 42.4023L36.223 24.496C36.8636 24.1042 37.6696 24.1042 38.3102 24.496L67.5846 42.4023C68.1787 42.7657 68.541 43.412 68.541 44.1085V80.2278C68.541 80.9242 68.1787 81.5705 67.5846 81.9339ZM72.5777 1.17945L87.3223 10.4006V28.9855L72.5777 38.2067L57.833 28.9855V10.4006L72.5777 1.17945ZM55.3973 95.9939L66.5175 89.3955L77.6378 95.9939V109.239L66.5175 115.837L55.3973 109.239V95.9939ZM74.501 77.3517L79.1624 74.7089L83.8239 77.3517V82.6061L79.1624 85.2489L74.501 82.6061V77.3517ZM105.403 77.0487L109.32 74.7224L113.238 77.0487V81.7507L109.32 84.077L105.403 81.7507V77.0487ZM77.7786 48.9797L91.9034 40.5505L106.028 48.9797V65.8962L91.9034 74.3254L77.7786 65.8962V48.9797Z" stroke="url(#paint0_radial_1020_9593)" stroke-opacity="0.9" stroke-width="2"/>
<path d="M19 43C19 41.8954 19.8954 41 21 41H53C54.1046 41 55 41.8954 55 43V48.8053C55 49.9098 54.1046 50.8053 53 50.8053H42.6C41.4954 50.8053 40.6 51.7007 40.6 52.8053V59.1789C40.6 60.2835 41.4954 61.1789 42.6 61.1789H52.173C53.2775 61.1789 54.173 62.0744 54.173 63.1789V69.2211C54.173 70.3256 53.2775 71.2211 52.173 71.2211H42.6C41.4954 71.2211 40.6 72.1165 40.6 73.2211V84C40.6 85.1046 39.7046 86 38.6 86H32.9189C31.8143 86 30.9189 85.1046 30.9189 84V52.8053C30.9189 51.7007 30.0235 50.8053 28.9189 50.8053H21C19.8954 50.8053 19 49.9098 19 48.8053V43Z" fill="url(#paint1_radial_1020_9593)" fill-opacity="0.9"/>
<defs>
<radialGradient id="paint0_radial_1020_9593" cx="0" cy="0" r="1" gradientUnits="userSpaceOnUse" gradientTransform="translate(108.02 116.908) rotate(-171.141) scale(140.118 94.8159)">
<stop stop-color="#E100F4"/>
<stop offset="0.427083" stop-color="#F14271"/>
<stop offset="1" stop-color="#FF7A00"/>
</radialGradient>
<radialGradient id="paint1_radial_1020_9593" cx="0" cy="0" r="1" gradientUnits="userSpaceOnUse" gradientTransform="translate(86 81) rotate(148.557) scale(102.56 80.3116)">
<stop offset="0.160602" stop-color="#E100F4"/>
<stop offset="1" stop-color="#FF7A00"/>
</radialGradient>
</defs>
</svg>
