<svg xmlns="http://www.w3.org/2000/svg" width="27" height="19" viewBox="0 0 27 19" fill="none">
<path d="M2.6647 18.4591C1.95083 18.4618 1.33853 18.2069 0.827807 17.6944C0.317084 17.1819 0.0608056 16.5653 0.0589714 15.8444L0.00983041 2.72212C0.00712765 2.00039 0.259211 1.38138 0.766082 0.865078C1.27295 0.348779 1.88289 0.0897325 2.5959 0.0879372L23.3631 0.0101671C24.077 0.0074938 24.6893 0.262401 25.2 0.774889C25.7107 1.28738 25.967 1.90405 25.9688 2.6249L26.018 15.7472C26.0207 16.4689 25.7686 17.0879 25.2617 17.6042C24.7549 18.1205 24.1449 18.3796 23.4319 18.3814L2.6647 18.4591ZM2.65487 15.8347L23.4221 15.7569L23.3729 2.63462L2.60573 2.71239L2.65487 15.8347ZM7.84176 14.503L18.2254 14.4641L18.2155 11.8397L7.83193 11.8786L7.84176 14.503ZM3.93317 10.5809L6.52907 10.5712L6.51924 7.94673L3.92334 7.95645L3.93317 10.5809ZM7.82702 10.5663L10.4229 10.5566L10.4131 7.93214L7.81719 7.94187L7.82702 10.5663ZM11.7209 10.5517L14.3168 10.542L14.3069 7.91756L11.711 7.92728L11.7209 10.5517ZM15.6147 10.5372L18.2106 10.5274L18.2008 7.90298L15.6049 7.9127L15.6147 10.5372ZM19.5086 10.5226L22.1045 10.5129L22.0946 7.8884L19.4987 7.89812L19.5086 10.5226ZM3.91842 6.64422L6.51433 6.6345L6.5045 4.01004L3.9086 4.01976L3.91842 6.64422ZM7.81228 6.62964L10.4082 6.61992L10.3983 3.99546L7.80245 4.00518L7.81228 6.62964ZM11.7061 6.61506L14.302 6.60533L14.2922 3.98088L11.6963 3.9906L11.7061 6.61506ZM15.6 6.60047L18.1959 6.59075L18.1861 3.9663L15.5902 3.97602L15.6 6.60047ZM19.4938 6.58589L22.0897 6.57617L22.0799 3.95171L19.484 3.96143L19.4938 6.58589Z" fill="#BDBDBD" />
</svg>