<svg xmlns="http://www.w3.org/2000/svg" width="668" height="502" viewBox="0 0 668 502" fill="none">
<path d="M14.1494 188.534C27.0941 143.665 66.4939 111.517 113.048 107.84L288.543 73.4767C296.508 71.9171 304.333 69.7137 311.941 66.8882L465.076 10.0174C569.945 -28.9286 679.006 56.4817 666.332 167.629L665.252 177.098L650.949 275.763C649.915 282.89 649.397 290.082 649.397 297.283V332.35L654.905 398.376L656.382 422.343C656.571 425.416 656.692 428.494 656.559 431.569C656.487 433.233 656.367 435.045 656.166 436.453C655.785 439.117 655.128 443.825 654.525 448.158C653.621 454.654 651.781 460.983 649.054 466.947C646.474 472.591 643.128 477.851 639.109 482.578L636.666 485.453L635.746 486.372C633.047 489.072 629.896 491.279 626.437 492.893C624.925 493.598 623.362 494.187 621.76 494.655L610.38 497.975L596.666 500.453L574.479 501.685C565.29 502.196 556.073 501.86 546.946 500.681L521.666 497.416L338.186 456.686C321.159 452.907 303.604 452.126 286.309 454.378L185.843 467.462C175.751 468.776 165.552 469.06 155.402 468.309L141.321 467.267C73.8326 462.273 18.0458 412.708 5.14266 346.276L2.00289 330.112L0 297.658V271.919L2.00289 240.025L8.01155 209.809L14.1494 188.534Z" fill="url(#paint0_radial_1020_9585)" fill-opacity="0.9"/>
<defs>
<radialGradient id="paint0_radial_1020_9585" cx="0" cy="0" r="1" gradientUnits="userSpaceOnUse" gradientTransform="translate(654.5 502) rotate(-173.096) scale(885.925 470.178)">
<stop stop-color="#F04A94"/>
<stop offset="0.5 " stop-color="#F04A94"/>
<stop offset="1" stop-color="#F76858"/>
</radialGradient>
</defs>
</svg>