<svg width="25" height="18" viewBox="0 0 25 18" fill="none" xmlns="http://www.w3.org/2000/svg">
<path d="M18.6611 12.3251C18.8651 11.8391 18.2821 11.4251 17.7931 11.6411C16.8157 12.0701 15.7596 12.2908 14.6921 12.2891C10.5071 12.2891 7.11512 8.96506 7.11512 4.86406C7.11359 3.4794 7.50698 2.12303 8.24912 0.954059C8.53312 0.506059 8.19212 -0.113941 7.67212 0.0180591C3.66313 1.04106 0.703125 4.61306 0.703125 8.86206C0.703125 13.9091 4.87813 18.0001 10.0291 18.0001C13.9291 18.0001 17.2691 15.6551 18.6611 12.3251Z" fill="#F04A94"/>
<path d="M19.6144 0.102793C19.0844 -0.251206 18.4524 0.380792 18.8054 0.910791L19.4354 1.85579C19.691 2.23895 19.8274 2.68921 19.8274 3.14978C19.8274 3.61036 19.691 4.06062 19.4354 4.44378L18.8054 5.38878C18.4524 5.91877 19.0854 6.55077 19.6154 6.19677L20.5594 5.56678C20.9426 5.31121 21.3929 5.17483 21.8535 5.17483C22.314 5.17483 22.7643 5.31121 23.1475 5.56678L24.0925 6.19677C24.6225 6.55077 25.2545 5.91877 24.9005 5.38878L24.2705 4.44378C24.0149 4.06062 23.8785 3.61036 23.8785 3.14978C23.8785 2.68921 24.0149 2.23895 24.2705 1.85579L24.9005 0.910791C25.2545 0.380792 24.6225 -0.251206 24.0915 0.102793L23.1475 0.732791C22.7643 0.988358 22.314 1.12474 21.8535 1.12474C21.3929 1.12474 20.9426 0.988358 20.5594 0.732791L19.6144 0.102793Z" fill="#F04A94"/>
</svg>
