<svg width="8" height="9" viewBox="0 0 8 9" fill="none" xmlns="http://www.w3.org/2000/svg">
<path d="M7.392 1.547V8.267C7.392 8.44523 7.3212 8.61615 7.19518 8.74218C7.06915 8.8682 6.89823 8.939 6.72 8.939H5.04C4.86177 8.939 4.69085 8.8682 4.56482 8.74218C4.4388 8.61615 4.368 8.44523 4.368 8.267V1.547C4.368 1.36877 4.4388 1.19785 4.56482 1.07182C4.69085 0.9458 4.86177 0.875 5.04 0.875H6.72C6.89823 0.875 7.06915 0.9458 7.19518 1.07182C7.3212 1.19785 7.392 1.36877 7.392 1.547ZM2.352 0.875H0.672C0.493775 0.875 0.322849 0.9458 0.196824 1.07182C0.0707998 1.19785 0 1.36877 0 1.547V8.267C0 8.44523 0.0707998 8.61615 0.196824 8.74218C0.322849 8.8682 0.493775 8.939 0.672 8.939H2.352C2.53023 8.939 2.70115 8.8682 2.82718 8.74218C2.9532 8.61615 3.024 8.44523 3.024 8.267V1.547C3.024 1.36877 2.9532 1.19785 2.82718 1.07182C2.70115 0.9458 2.53023 0.875 2.352 0.875Z" fill="#FCFCFC"/>
</svg>
