<svg xmlns="http://www.w3.org/2000/svg" width="20" height="18" viewBox="0 0 20 18" fill="none">
<path d="M18.4444 18L11.4444 11.7C10.8889 12.1 10.25 12.4167 9.52778 12.65C8.80556 12.8833 8.03704 13 7.22222 13C5.2037 13 3.49556 12.3707 2.09778 11.112C0.7 9.85333 0.000740741 8.316 0 6.5C0 4.68333 0.699259 3.146 2.09778 1.888C3.4963 0.63 5.20444 0.000666667 7.22222 0C9.24074 0 10.9489 0.629333 12.3467 1.888C13.7444 3.14667 14.4437 4.684 14.4444 6.5C14.4444 7.23333 14.3148 7.925 14.0556 8.575C13.7963 9.225 13.4444 9.8 13 10.3L20 16.6L18.4444 18ZM7.22222 11C8.61111 11 9.79185 10.5623 10.7644 9.687C11.737 8.81167 12.223 7.74933 12.2222 6.5C12.2222 5.25 11.7359 4.18733 10.7633 3.312C9.79074 2.43667 8.61037 1.99933 7.22222 2C5.83333 2 4.65259 2.43767 3.68 3.313C2.70741 4.18833 2.22148 5.25067 2.22222 6.5C2.22222 7.75 2.70852 8.81267 3.68111 9.688C4.6537 10.5633 5.83407 11.0007 7.22222 11Z" fill="#BDBDBD" />
</svg>