<svg xmlns="http://www.w3.org/2000/svg" width="22" height="23" viewBox="0 0 22 23" fill="none">
<path d="M10.6356 0.457031C9.89114 0.457031 9.30618 1.06433 9.30618 1.83726C9.30618 2.61019 9.89114 3.2175 10.6356 3.2175C11.3801 3.2175 11.9651 2.61019 11.9651 1.83726C11.9651 1.06433 11.3801 0.457031 10.6356 0.457031ZM3.98836 3.2175C3.24387 3.2175 2.65891 3.8248 2.65891 4.59773C2.65891 5.37066 3.24387 5.97796 3.98836 5.97796C4.73286 5.97796 5.31782 5.37066 5.31782 4.59773C5.31782 3.8248 4.73286 3.2175 3.98836 3.2175ZM17.2829 3.2175C16.5384 3.2175 15.9535 3.8248 15.9535 4.59773C15.9535 5.37066 16.5384 5.97796 17.2829 5.97796C18.0274 5.97796 18.6124 5.37066 18.6124 4.59773C18.6124 3.8248 18.0274 3.2175 17.2829 3.2175ZM10.6356 5.97796C7.71084 5.97796 5.31782 8.46238 5.31782 11.4989C5.31782 14.5354 7.71084 17.0198 10.6356 17.0198C13.5604 17.0198 15.9535 14.5354 15.9535 11.4989C15.9535 8.46238 13.5604 5.97796 10.6356 5.97796ZM1.32945 10.1187C0.58496 10.1187 0 10.726 0 11.4989C0 12.2718 0.58496 12.8791 1.32945 12.8791C2.07395 12.8791 2.65891 12.2718 2.65891 11.4989C2.65891 10.726 2.07395 10.1187 1.32945 10.1187ZM19.9418 10.1187C19.1973 10.1187 18.6124 10.726 18.6124 11.4989C18.6124 12.2718 19.1973 12.8791 19.9418 12.8791C20.6863 12.8791 21.2713 12.2718 21.2713 11.4989C21.2713 10.726 20.6863 10.1187 19.9418 10.1187ZM3.98836 17.0198C3.24387 17.0198 2.65891 17.6271 2.65891 18.4001C2.65891 19.173 3.24387 19.7803 3.98836 19.7803C4.73286 19.7803 5.31782 19.173 5.31782 18.4001C5.31782 17.6271 4.73286 17.0198 3.98836 17.0198ZM17.2829 17.0198C16.5384 17.0198 15.9535 17.6271 15.9535 18.4001C15.9535 19.173 16.5384 19.7803 17.2829 19.7803C18.0274 19.7803 18.6124 19.173 18.6124 18.4001C18.6124 17.6271 18.0274 17.0198 17.2829 17.0198ZM10.6356 19.7803C9.89114 19.7803 9.30618 20.3876 9.30618 21.1605C9.30618 21.9335 9.89114 22.5408 10.6356 22.5408C11.3801 22.5408 11.9651 21.9335 11.9651 21.1605C11.9651 20.3876 11.3801 19.7803 10.6356 19.7803Z" fill="#FCFCFC"/>
</svg>