<svg width="19" height="22" viewBox="0 0 19 22" fill="none" xmlns="http://www.w3.org/2000/svg">
<path d="M17.2444 8L15.3381 19.346C15.2603 19.8094 15.029 20.2292 14.6847 20.5317C14.3404 20.8342 13.9052 21 13.4557 21H5.74433C5.29478 21 4.85961 20.8342 4.51532 20.5317C4.17103 20.2292 3.93966 19.8094 3.86189 19.346L1.95556 8M18.2 5H12.825M12.825 5V3C12.825 2.46957 12.6237 1.96086 12.2652 1.58579C11.9068 1.21071 11.4207 1 10.9139 1H8.28611C7.77925 1 7.29315 1.21071 6.93475 1.58579C6.57635 1.96086 6.375 2.46957 6.375 3V5M12.825 5H6.375M1 5H6.375" stroke="#FCFCFC" stroke-width="1.2" stroke-linecap="round" stroke-linejoin="round"/>
</svg>
