<svg xmlns="http://www.w3.org/2000/svg" width="16" height="21" viewBox="0 0 16 21" fill="none">
  <path d="M14.0571 9.94737C14.0571 13.2632 11.1543 15.5842 8 15.5842C4.84571 15.5842 1.94286 13.2632 1.94286 9.94737H0C0 13.7163 3.10857 16.8332 6.85714 17.3747V21H9.14286V17.3747C12.8914 16.8332 16 13.7163 16 9.94737M6.62857 3.20526C6.62857 2.47579 7.24571 1.87895 8 1.87895C8.75429 1.87895 9.37143 2.47579 9.37143 3.20526L9.36 10.0579C9.36 10.7874 8.75429 11.3842 8 11.3842C7.24571 11.3842 6.62857 10.7874 6.62857 10.0579M8 13.2632C8.90931 13.2632 9.78139 12.9138 10.4244 12.292C11.0673 11.6702 11.4286 10.8268 11.4286 9.94737V3.31579C11.4286 2.43639 11.0673 1.593 10.4244 0.971172C9.78139 0.349341 8.90931 0 8 0C7.09069 0 6.21862 0.349341 5.57563 0.971172C4.93265 1.593 4.57143 2.43639 4.57143 3.31579V9.94737C4.57143 10.8268 4.93265 11.6702 5.57563 12.292C6.21862 12.9138 7.09069 13.2632 8 13.2632Z" fill="#BDBDBD"/>
</svg>