<svg width="115" height="117" viewBox="0 0 115 117" fill="none" xmlns="http://www.w3.org/2000/svg">
<path d="M36.2237 24.4942C36.8643 24.1024 37.6703 24.1024 38.3109 24.4942L67.5853 42.4005C68.1794 42.7639 68.5417 43.4102 68.5417 44.1066V80.2259C68.5417 80.9223 68.1794 81.5686 67.5853 81.932L38.3109 99.8384C37.6703 100.23 36.8643 100.23 36.2237 99.8384L6.94928 81.932C6.35516 81.5686 5.99287 80.9223 5.99287 80.2259V44.1066C5.99287 43.4102 6.35516 42.7639 6.94927 42.4005L36.2237 24.4942Z" stroke="#FCFCFC" stroke-width="2"/>
<path d="M57.8341 10.4006L72.5788 1.17945L87.3234 10.4006V28.9855L72.5788 38.2067L57.8341 28.9855V10.4006Z" stroke="#FCFCFC" stroke-width="2"/>
<path d="M55.3984 95.9956L66.5187 89.3972L77.6389 95.9956V109.24L66.5187 115.839L55.3984 109.24V95.9956Z" stroke="#FCFCFC" stroke-width="2"/>
<path d="M74.5008 77.351L79.1623 74.7081L83.8237 77.351V82.6053L79.1623 85.2482L74.5008 82.6053V77.351Z" stroke="#FCFCFC" stroke-width="2"/>
<path d="M105.401 77.048L109.319 74.7216L113.237 77.048V81.7499L109.319 84.0763L105.401 81.7499V77.048Z" stroke="#FCFCFC" stroke-width="2"/>
<path d="M77.7773 48.9805L91.9021 40.5513L106.027 48.9805V65.8969L91.9021 74.3261L77.7773 65.8969V48.9805Z" stroke="#FCFCFC" stroke-width="2"/>
<path d="M19 43C19 41.8954 19.8954 41 21 41H53C54.1046 41 55 41.8954 55 43V48.8053C55 49.9098 54.1046 50.8053 53 50.8053H42.6C41.4954 50.8053 40.6 51.7007 40.6 52.8053V59.1789C40.6 60.2835 41.4954 61.1789 42.6 61.1789H52.173C53.2775 61.1789 54.173 62.0744 54.173 63.1789V69.2211C54.173 70.3256 53.2775 71.2211 52.173 71.2211H42.6C41.4954 71.2211 40.6 72.1165 40.6 73.2211V84C40.6 85.1046 39.7046 86 38.6 86H32.9189C31.8143 86 30.9189 85.1046 30.9189 84V52.8053C30.9189 51.7007 30.0235 50.8053 28.9189 50.8053H21C19.8954 50.8053 19 49.9098 19 48.8053V43Z" fill="#FCFCFC"/>
</svg>
