<svg xmlns="http://www.w3.org/2000/svg" width="21" height="23" viewBox="0 0 21 23" fill="none">
  <path d="M14.351 21.566C14.401 21.9492 14.2761 22.3581 13.9886 22.6264C13.873 22.7448 13.7356 22.8388 13.5844 22.9029C13.4332 22.967 13.2712 23 13.1075 23C12.9438 23 12.7817 22.967 12.6305 22.9029C12.4793 22.8388 12.342 22.7448 12.2263 22.6264L7.21453 17.5032C7.07822 17.367 6.97457 17.2004 6.9117 17.0164C6.84882 16.8325 6.82842 16.6361 6.85208 16.4428V9.90143L0.865411 2.06972C0.662449 1.80338 0.570869 1.46574 0.610681 1.13059C0.650493 0.795439 0.818461 0.490021 1.07788 0.281073C1.31535 0.102208 1.57781 0 1.85277 0H19.3503C19.6253 0 19.8878 0.102208 20.1252 0.281073C20.3847 0.490021 20.5526 0.795439 20.5924 1.13059C20.6323 1.46574 20.5407 1.80338 20.3377 2.06972L14.351 9.90143V21.566ZM4.40242 2.55521L9.35174 9.01989V16.0723L11.8514 18.6275V9.00711L16.8007 2.55521H4.40242Z" fill="#FCFCFC"/>
</svg>