<svg xmlns="http://www.w3.org/2000/svg" width="21" height="19" viewBox="0 0 21 19" fill="none">
<path d="M15.6016 2.43281V0.499813C15.6016 0.404806 15.6287 0.311775 15.6797 0.231615C15.7307 0.151455 15.8035 0.0874833 15.8895 0.0471913C15.9756 0.00689931 16.0713 -0.00804517 16.1655 0.00410785C16.2597 0.0162609 16.3486 0.0550082 16.4216 0.115813L20.5416 3.54881C20.6205 3.61466 20.6773 3.70323 20.7041 3.80249C20.7309 3.90174 20.7264 4.00684 20.6913 4.10347C20.6562 4.2001 20.5922 4.28357 20.508 4.3425C20.4237 4.40144 20.3234 4.43297 20.2206 4.43281H0.601562V2.43281H15.6016ZM0.601562 16.4328H20.6016V18.4328H0.601562V16.4328ZM0.601562 9.43281H20.6016V11.4328H0.601562V9.43281Z" fill="#FCFCFC"/>
</svg>