<svg xmlns="http://www.w3.org/2000/svg" width="19" height="20" viewBox="0 0 19 20" fill="none">
<path d="M16.7016 20L10.4016 13C9.90156 13.4444 9.32656 13.7963 8.67656 14.0556C8.02656 14.3148 7.3349 14.4444 6.60156 14.4444C4.7849 14.4444 3.24756 13.7452 1.98956 12.3467C0.731562 10.9481 0.102229 9.24 0.101563 7.22222C0.101563 5.2037 0.730896 3.49556 1.98956 2.09778C3.24823 0.7 4.78556 0.000740741 6.60156 0C8.41823 0 9.95556 0.699259 11.2136 2.09778C12.4716 3.4963 13.1009 5.20444 13.1016 7.22222C13.1016 8.03704 12.9849 8.80556 12.7516 9.52778C12.5182 10.25 12.2016 10.8889 11.8016 11.4444L18.1016 18.4444L16.7016 20ZM6.60156 12.2222C7.85156 12.2222 8.91423 11.7359 9.78956 10.7633C10.6649 9.79074 11.1022 8.61037 11.1016 7.22222C11.1016 5.83333 10.6639 4.65259 9.78856 3.68C8.91323 2.70741 7.8509 2.22148 6.60156 2.22222C5.35156 2.22222 4.2889 2.70852 3.41356 3.68111C2.53823 4.6537 2.1009 5.83407 2.10156 7.22222C2.10156 8.61111 2.53923 9.79185 3.41456 10.7644C4.2899 11.737 5.35223 12.223 6.60156 12.2222Z" fill="#FCFCFC"/>
</svg>