<svg xmlns="http://www.w3.org/2000/svg" width="17" height="17" viewBox="0 0 17 17" fill="none">
  <path d="M7.11297 12.3384V7.00439H6.47997C6.02661 7.24606 5.58846 7.51523 5.16797 7.81039V8.50539C5.54297 8.24839 6.13697 7.88539 6.42597 7.72839H6.43797V12.3384H7.11297ZM8.30097 11.0334C8.34797 11.6734 8.89497 12.4394 10.004 12.4394C11.262 12.4394 12.004 11.3734 12.004 9.56839C12.004 7.63439 11.223 6.90039 10.051 6.90039C9.12497 6.90039 8.25397 7.57239 8.25397 8.70939C8.25397 9.86939 9.07797 10.4794 9.92997 10.4794C10.676 10.4794 11.16 10.1034 11.313 9.68939H11.34C11.336 11.0054 10.879 11.8534 10.035 11.8534C9.37097 11.8534 9.02697 11.4034 8.98497 11.0334H8.30097ZM11.254 8.71639C11.254 9.41239 10.695 9.89639 10.07 9.89639C9.46897 9.89639 8.92597 9.51339 8.92597 8.69639C8.92597 7.87339 9.50797 7.48639 10.094 7.48639C10.727 7.48639 11.254 7.88439 11.254 8.71639Z" fill="#FF871A"/>
  <path d="M4.16797 0.650391C4.30058 0.650391 4.42775 0.703069 4.52152 0.796837C4.61529 0.890605 4.66797 1.01778 4.66797 1.15039V1.65039H12.668V1.15039C12.668 1.01778 12.7206 0.890605 12.8144 0.796837C12.9082 0.703069 13.0354 0.650391 13.168 0.650391C13.3006 0.650391 13.4278 0.703069 13.5215 0.796837C13.6153 0.890605 13.668 1.01778 13.668 1.15039V1.65039H14.668C15.1984 1.65039 15.7071 1.8611 16.0822 2.23618C16.4573 2.61125 16.668 3.11996 16.668 3.65039V14.6504C16.668 15.1808 16.4573 15.6895 16.0822 16.0646C15.7071 16.4397 15.1984 16.6504 14.668 16.6504H2.66797C2.13754 16.6504 1.62883 16.4397 1.25376 16.0646C0.878682 15.6895 0.667969 15.1808 0.667969 14.6504V3.65039C0.667969 3.11996 0.878682 2.61125 1.25376 2.23618C1.62883 1.8611 2.13754 1.65039 2.66797 1.65039H3.66797V1.15039C3.66797 1.01778 3.72065 0.890605 3.81442 0.796837C3.90818 0.703069 4.03536 0.650391 4.16797 0.650391ZM1.66797 4.65039V14.6504C1.66797 14.9156 1.77333 15.17 1.96086 15.3575C2.1484 15.545 2.40275 15.6504 2.66797 15.6504H14.668C14.9332 15.6504 15.1875 15.545 15.3751 15.3575C15.5626 15.17 15.668 14.9156 15.668 14.6504V4.65039H1.66797Z" fill="#FF871A"/>
</svg>