<svg xmlns="http://www.w3.org/2000/svg" width="17" height="17" viewBox="0 0 17 17" fill="none">
  <path d="M4.09263 0.800781C3.18332 0.800781 2.31125 1.16198 1.66827 1.80493C1.02529 2.44787 0.664063 3.31989 0.664062 4.22915V13.3715C0.664063 14.2807 1.02529 15.1528 1.66827 15.7957C2.31125 16.4386 3.18332 16.7999 4.09263 16.7999H13.2355C14.1448 16.7999 15.0169 16.4386 15.6599 15.7957C16.3028 15.1528 16.6641 14.2807 16.6641 13.3715V4.22915C16.6641 3.31989 16.3028 2.44787 15.6599 1.80493C15.0169 1.16198 14.1448 0.800781 13.2355 0.800781H4.09263ZM13.0686 6.34789L7.35435 12.0618C7.30127 12.1151 7.23821 12.1573 7.16879 12.1861C7.09936 12.2149 7.02494 12.2297 6.94978 12.2297C6.87461 12.2297 6.80019 12.2149 6.73077 12.1861C6.66134 12.1573 6.59829 12.1151 6.54521 12.0618L4.25949 9.77626C4.15219 9.66897 4.09191 9.52345 4.09191 9.37171C4.09191 9.21998 4.15219 9.07446 4.25949 8.96716C4.36679 8.85987 4.51232 8.79959 4.66406 8.79959C4.81581 8.79959 4.96134 8.85987 5.06863 8.96716L6.94978 10.8493L12.2595 5.53879C12.3126 5.48567 12.3757 5.44352 12.4451 5.41477C12.5145 5.38602 12.5889 5.37122 12.6641 5.37122C12.7392 5.37122 12.8136 5.38602 12.883 5.41477C12.9524 5.44352 13.0155 5.48567 13.0686 5.53879C13.1218 5.59192 13.1639 5.65499 13.1927 5.7244C13.2214 5.79381 13.2362 5.86821 13.2362 5.94334C13.2362 6.01847 13.2214 6.09287 13.1927 6.16228C13.1639 6.23169 13.1218 6.29476 13.0686 6.34789Z" fill="#F04A94"/>
</svg>