<svg width="19" height="19" viewBox="0 0 19 19" fill="none" xmlns="http://www.w3.org/2000/svg">
<path id="Vector" d="M17.4987 0.593854C16.7231 0.10337 15.7587 -0.094906 14.8176 0.0426287C13.8766 0.180163 13.0359 0.642247 12.4804 1.32727L3.40547 12.5191C3.19897 12.7607 3.04932 13.0365 2.96532 13.33C2.88133 13.6236 2.86469 13.9291 2.91639 14.2284C2.96809 14.5277 3.08709 14.8149 3.26636 15.073C3.44564 15.3311 3.68158 15.5548 3.96027 15.7311C4.23896 15.9074 4.55477 16.0326 4.8891 16.0994C5.22342 16.1662 5.5695 16.1733 5.90694 16.1201C6.24438 16.0669 6.56636 15.9546 6.85391 15.7898C7.14146 15.625 7.38876 15.411 7.58125 15.1604L13.9888 7.259L13.1534 6.72982L6.74691 14.6331C6.50871 14.9261 6.14872 15.1238 5.74581 15.1829C5.3429 15.2419 4.92993 15.1575 4.59738 14.948C4.26536 14.7373 4.04155 14.4188 3.97509 14.0624C3.90863 13.7061 4.00494 13.341 4.24289 13.0473L13.3157 1.85554H13.3178L13.3157 1.85372C13.7136 1.36527 14.3144 1.036 14.9865 0.938011C15.6586 0.840019 16.3473 0.981292 16.9017 1.3309C17.4547 1.68238 17.8274 2.21309 17.9383 2.80682C18.0493 3.40056 17.8893 4.00893 17.4936 4.49873V4.49691L7.54734 16.7652C6.99132 17.4495 6.15086 17.9112 5.21018 18.049C4.2695 18.1868 3.30533 17.9895 2.52901 17.5004C1.7545 17.0087 1.2323 16.2657 1.07687 15.4343C0.921432 14.603 1.14545 13.7511 1.69982 13.0655L8.92831 4.15017L8.09295 3.6219L0.864456 12.5372C0.510866 12.9732 0.258011 13.4665 0.120346 13.9889C-0.0173191 14.5113 -0.0370964 15.0525 0.0621452 15.5816C0.161387 16.1107 0.377701 16.6174 0.698724 17.0727C1.01975 17.5279 1.43918 17.9228 1.93306 18.2348C2.42632 18.5474 2.98451 18.7711 3.57571 18.8931C4.16691 19.015 4.77952 19.0329 5.37852 18.9455C5.97752 18.8582 6.55116 18.6674 7.06664 18.3841C7.58212 18.1008 8.02933 17.7305 8.3827 17.2944L18.3289 5.02609C18.8836 4.34076 19.1076 3.4889 18.9515 2.65776C18.7954 1.82663 18.2721 1.08426 17.4967 0.593854H17.4987Z" fill="#E8E6E6 "/>
</svg>
