<svg width="28" height="49" viewBox="0 0 28 49" fill="none" xmlns="http://www.w3.org/2000/svg">
<path d="M10.4 7.63158C10.4 5.89474 12.02 4.47368 14 4.47368C15.98 4.47368 17.6 5.89474 17.6 7.63158L17.57 23.9474C17.57 25.6842 15.98 27.1053 14 27.1053C12.02 27.1053 10.4 25.6842 10.4 23.9474M14 31.5789C16.3869 31.5789 18.6761 30.7472 20.364 29.2666C22.0518 27.7861 23 25.778 23 23.6842V7.89474C23 5.80092 22.0518 3.79287 20.364 2.31232C18.6761 0.831765 16.3869 0 14 0C11.613 0 9.32387 0.831765 7.63604 2.31232C5.94821 3.79287 5 5.80092 5 7.89474V23.6842C5 25.778 5.94821 27.7861 7.63604 29.2666C9.32387 30.7472 11.613 31.5789 14 31.5789Z" fill="#E8E6E6 "/>
<path d="M26.2662 26.5513C26.9363 25.9517 27.9559 26.429 27.8071 27.3158C27.6325 28.357 27.3402 29.3776 26.9343 30.3576C26.2307 32.0561 25.1995 33.5995 23.8995 34.8995C22.5995 36.1995 21.0561 37.2307 19.3576 37.9343C17.659 38.6379 15.8385 39 14 39C12.1615 39 10.341 38.6379 8.64243 37.9343C6.94387 37.2307 5.40052 36.1995 4.1005 34.8995C2.80048 33.5995 1.76925 32.0561 1.06569 30.3576C0.669816 29.4019 0.382044 28.4075 0.206053 27.3931C0.0440051 26.4591 1.11009 25.9436 1.8324 26.5575L6.82434 30.8007C8.87439 32.5432 11.4773 33.5 14.1679 33.5C16.9576 33.5 19.6495 32.4715 21.7285 30.6114L26.2662 26.5513Z" fill="#E8E6E6 "/>
<path d="M11 39C11 37.3431 12.3431 36 14 36C15.6569 36 17 37.3431 17 39V46C17 47.6569 15.6569 49 14 49C12.3431 49 11 47.6569 11 46V39Z" fill="#E8E6E6 "/>
</svg>
