<svg width="13" height="14" viewBox="0 0 13 14" fill="none" xmlns="http://www.w3.org/2000/svg">
<path id="Vector" d="M2.6 8.4H7.8V7H2.6V8.4ZM2.6 6.3H10.4V4.9H2.6V6.3ZM2.6 4.2H10.4V2.8H2.6V4.2ZM0 14V1.4C0 1.015 0.1274 0.685301 0.3822 0.410901C0.637 0.136501 0.942933 -0.000465478 1.3 1.18846e-06H11.7C12.0575 1.18846e-06 12.3636 0.137201 12.6184 0.411601C12.8732 0.686001 13.0004 1.01547 13 1.4V9.8C13 10.185 12.8726 10.5147 12.6178 10.7891C12.363 11.0635 12.0571 11.2005 11.7 11.2H2.6L0 14ZM2.0475 9.8H11.7V1.4H1.3V10.5875L2.0475 9.8Z" fill="#F04A94"/>
</svg>
