<svg width="50" height="50" viewBox="0 0 50 50" fill="none" xmlns="http://www.w3.org/2000/svg">
<path d="M25.0008 0C25.732 0.0010201 26.4629 0.0333414 27.1914 0.096875C29.5133 0.296875 31.2195 2.01562 31.7508 4.03125L32.6508 7.49063C32.707 7.69688 32.8976 7.98438 33.3133 8.19063C34.0351 8.54688 34.732 8.95 35.4008 9.39687C35.7851 9.65312 36.1289 9.67813 36.3351 9.61875L39.782 8.67188C41.7945 8.12188 44.132 8.7375 45.4695 10.6406C46.3133 11.8437 47.0508 13.1156 47.6695 14.4469C48.6539 16.5563 48.0164 18.8906 46.532 20.3562L43.9883 22.875C43.8351 23.025 43.682 23.3344 43.7133 23.7937C43.7633 24.5969 43.7633 25.4031 43.7133 26.2062C43.682 26.6656 43.832 26.975 43.9883 27.125L46.532 29.6438C48.0164 31.1094 48.6539 33.4437 47.6695 35.5531C47.0495 36.8831 46.3133 38.1558 45.4695 39.3562C44.132 41.2625 41.7945 41.8781 39.782 41.325L36.3383 40.3812C36.1289 40.3219 35.7851 40.3469 35.4008 40.6031C34.7319 41.0503 34.0346 41.4532 33.3133 41.8094C32.8976 42.0156 32.707 42.3031 32.6539 42.5094L31.7476 45.9656C31.2226 47.9844 29.5133 49.7031 27.1914 49.9031C25.7338 50.0312 24.2677 50.0312 22.8101 49.9031C20.4883 49.7031 18.782 47.9844 18.2539 45.9656L17.3508 42.5094C17.2945 42.3031 17.1039 42.0156 16.6883 41.8094C15.9661 41.4546 15.2687 41.0516 14.6008 40.6031C14.2164 40.3469 13.8726 40.3219 13.6664 40.3812L10.2195 41.3281C8.207 41.8781 5.8695 41.2625 4.532 39.3594C3.68994 38.1567 2.95384 36.8831 2.332 35.5531C1.34763 33.4437 1.98513 31.1094 3.46638 29.6438L6.01325 27.125C6.1695 26.975 6.3195 26.6656 6.28825 26.2062C6.23825 25.4029 6.23825 24.5971 6.28825 23.7937C6.3195 23.3344 6.1695 23.025 6.01325 22.875L3.46638 20.3562C1.98513 18.8906 1.34763 16.5563 2.332 14.4469C2.95114 13.1165 3.68738 11.8437 4.532 10.6437C5.8695 8.7375 8.207 8.12188 10.2195 8.675L13.6633 9.61875C13.8726 9.67813 14.2164 9.65312 14.6008 9.39687C15.2695 8.95 15.9664 8.54688 16.6883 8.19063C17.1039 7.98438 17.2945 7.69688 17.3476 7.49063L18.2539 4.03438C18.7789 2.01562 20.4883 0.296875 22.8101 0.09375C23.532 0.03125 24.2633 0 25.0008 0ZM23.2164 4.76562C23.1039 4.775 22.8789 4.87813 22.7883 5.22188L21.8851 8.675C21.4258 10.4281 20.1695 11.6969 18.7664 12.3906C18.2258 12.6594 17.7039 12.9625 17.2039 13.2969C15.9008 14.1656 14.1726 14.6188 12.4258 14.1406L8.97888 13.1938C8.63825 13.1 8.432 13.2438 8.3695 13.3344C7.682 14.3094 7.082 15.3469 6.57888 16.4281C6.53513 16.525 6.51325 16.7719 6.76325 17.0219L9.31013 19.5406C10.5945 20.8094 11.0664 22.5313 10.9664 24.0906C10.9289 24.6963 10.9289 25.3037 10.9664 25.9094C11.0664 27.4688 10.5945 29.1906 9.31013 30.4594L6.76325 32.9781C6.51013 33.2281 6.53513 33.475 6.57888 33.5719C7.08513 34.6531 7.682 35.6875 8.3695 36.6625C8.432 36.7563 8.63513 36.9 8.97888 36.8062L12.4226 35.8594C14.1726 35.3813 15.9008 35.8344 17.2039 36.7031C17.707 37.0375 18.2289 37.3406 18.7695 37.6094C20.1664 38.3031 21.4258 39.575 21.8851 41.325L22.7883 44.7781C22.8789 45.1188 23.1039 45.225 23.2164 45.2344C24.4037 45.3375 25.5978 45.3375 26.7851 45.2344C26.8976 45.225 27.1226 45.1219 27.2133 44.7781L28.1164 41.325C28.5758 39.5719 29.832 38.3031 31.2351 37.6094C31.7758 37.3406 32.2976 37.0375 32.7976 36.7031C34.1008 35.8344 35.8289 35.3813 37.5758 35.8594L41.0226 36.8062C41.3633 36.8969 41.5695 36.7562 41.632 36.6656C42.3195 35.6875 42.9164 34.6531 43.4226 33.5719C43.4664 33.475 43.4883 33.2281 43.2383 32.9781L40.6914 30.4594C39.407 29.1906 38.9351 27.4688 39.0351 25.9094C39.0726 25.3037 39.0726 24.6963 39.0351 24.0906C38.9351 22.5313 39.407 20.8094 40.6914 19.5406L43.2383 17.0219C43.4914 16.7719 43.4664 16.525 43.4226 16.4281C42.9182 15.3471 42.319 14.3128 41.632 13.3375C41.5695 13.2438 41.3664 13.1 41.0226 13.1938L37.5789 14.1406C35.8289 14.6188 34.1008 14.1656 32.7976 13.2969C32.296 12.9611 31.773 12.6583 31.232 12.3906C29.8351 11.6969 28.5758 10.425 28.1164 8.675L27.2133 5.22188C27.1226 4.87813 26.8976 4.775 26.7851 4.76562C25.5978 4.66251 24.4037 4.66251 23.2164 4.76562ZM34.3758 25C34.3758 27.4864 33.388 29.871 31.6299 31.6291C29.8717 33.3873 27.4872 34.375 25.0008 34.375C22.5144 34.375 20.1298 33.3873 18.3716 31.6291C16.6135 29.871 15.6258 27.4864 15.6258 25C15.6258 22.5136 16.6135 20.129 18.3716 18.3709C20.1298 16.6127 22.5144 15.625 25.0008 15.625C27.4872 15.625 29.8717 16.6127 31.6299 18.3709C33.388 20.129 34.3758 22.5136 34.3758 25ZM29.6883 25C29.6878 23.7564 29.1934 22.5639 28.3138 21.6848C27.4341 20.8057 26.2412 20.3121 24.9976 20.3125C23.754 20.3129 22.5615 20.8073 21.6824 21.687C20.8033 22.5667 20.3097 23.7595 20.3101 25.0031C20.3105 26.2467 20.805 27.4393 21.6846 28.3183C22.1202 28.7536 22.6372 29.0988 23.2062 29.3343C23.7752 29.5697 24.385 29.6908 25.0008 29.6906C25.6165 29.6904 26.2262 29.5689 26.7951 29.3331C27.3639 29.0973 27.8807 28.7517 28.316 28.3161C28.7512 27.8806 29.0965 27.3635 29.3319 26.7945C29.5674 26.2256 29.6885 25.6158 29.6883 25Z" fill="#FCFCFC"/>
</svg>
