<svg width="12" height="16" viewBox="0 0 12 16" fill="none" xmlns="http://www.w3.org/2000/svg">
<g id="&#240;&#159;&#166;&#134; icon &#34;profile delete&#34;">
<g id="Group">
<path id="Vector" d="M9.31159 15.3243C9.16894 15.3243 9.02628 15.2717 8.91366 15.1591C8.69592 14.9414 8.69592 14.581 8.91366 14.3632L11.031 12.2459C11.2487 12.0282 11.6091 12.0282 11.8269 12.2459C12.0446 12.4637 12.0446 12.8241 11.8269 13.0418L9.70953 15.1591C9.59691 15.2717 9.45425 15.3243 9.31159 15.3243Z" fill="#F04A94"/>
<path id="Vector_2" d="M11.4289 15.3243C11.2863 15.3243 11.1436 15.2717 11.031 15.1591L8.91366 13.0418C8.69592 12.8241 8.69592 12.4637 8.91366 12.2459C9.13139 12.0282 9.49179 12.0282 9.70953 12.2459L11.8269 14.3632C12.0446 14.581 12.0446 14.9414 11.8269 15.1591C11.7142 15.2717 11.5716 15.3243 11.4289 15.3243Z" fill="#F04A94"/>
<path id="Vector_3" d="M6.73716 7.78604C6.71464 7.78604 6.69962 7.78604 6.67709 7.78604C6.63955 7.77853 6.587 7.77853 6.54195 7.78604C4.3646 7.71847 2.72029 6.00659 2.72029 3.89678C2.72029 1.74942 4.46971 0 6.61703 0C8.76438 0 10.5138 1.74942 10.5138 3.89678C10.5063 6.00659 8.85448 7.71847 6.75969 7.78604C6.75218 7.78604 6.74467 7.78604 6.73716 7.78604ZM6.61703 1.12624C5.09289 1.12624 3.84653 2.3726 3.84653 3.89678C3.84653 5.39842 5.01781 6.60725 6.51191 6.65981C6.55696 6.6523 6.65457 6.6523 6.75218 6.65981C8.22379 6.59223 9.38006 5.38341 9.38757 3.89678C9.38757 2.3726 8.1412 1.12624 6.61703 1.12624Z" fill="#F04A94"/>
<path id="Vector_4" d="M6.61658 16C5.08492 16 3.63583 15.6021 2.53963 14.8663C1.49598 14.168 0.925354 13.2145 0.925354 12.1858C0.925354 11.1572 1.50349 10.2112 2.53963 9.52042C4.78459 8.01877 8.43358 8.01877 10.6785 9.52042C10.9338 9.69311 11.0089 10.046 10.8362 10.3013C10.6635 10.5641 10.3106 10.6316 10.0554 10.4589C8.18581 9.21258 5.03236 9.21258 3.16281 10.4589C2.44202 10.9395 2.05159 11.5476 2.05159 12.1858C2.05159 12.824 2.44953 13.4472 3.16281 13.9278C4.07131 14.5359 5.29513 14.8663 6.60908 14.8663C6.91691 14.8663 7.17219 15.1216 7.17219 15.4294C7.17219 15.7372 6.92442 16 6.61658 16Z" fill="#F04A94"/>
</g>
</g>
</svg>
