<svg width="12" height="16" viewBox="0 0 12 16" fill="none" xmlns="http://www.w3.org/2000/svg">
<path d="M9.31148 15.3243C9.16883 15.3243 9.02617 15.2717 8.91355 15.1591C8.69581 14.9414 8.69581 14.581 8.91355 14.3632L11.0309 12.2459C11.2486 12.0282 11.609 12.0282 11.8267 12.2459C12.0445 12.4637 12.0445 12.8241 11.8267 13.0418L9.70942 15.1591C9.5968 15.2717 9.45414 15.3243 9.31148 15.3243Z" fill="#F76858"/>
<path d="M11.4288 15.3243C11.2862 15.3243 11.1435 15.2717 11.0309 15.1591L8.91355 13.0418C8.69581 12.8241 8.69581 12.4637 8.91355 12.2459C9.13129 12.0282 9.49168 12.0282 9.70942 12.2459L11.8267 14.3632C12.0445 14.581 12.0445 14.9414 11.8267 15.1591C11.7141 15.2717 11.5715 15.3243 11.4288 15.3243Z" fill="#F76858"/>
<path d="M6.73708 7.78604C6.71456 7.78604 6.69954 7.78604 6.67702 7.78604C6.63948 7.77853 6.58692 7.77853 6.54187 7.78604C4.36452 7.71847 2.72021 6.00659 2.72021 3.89678C2.72021 1.74942 4.46963 0 6.61695 0C8.76431 0 10.5137 1.74942 10.5137 3.89678C10.5062 6.00659 8.85441 7.71847 6.75961 7.78604C6.7521 7.78604 6.74459 7.78604 6.73708 7.78604ZM6.61695 1.12624C5.09282 1.12624 3.84645 2.3726 3.84645 3.89678C3.84645 5.39842 5.01774 6.60725 6.51184 6.65981C6.55689 6.6523 6.65449 6.6523 6.7521 6.65981C8.22372 6.59223 9.37998 5.38341 9.38749 3.89678C9.38749 2.3726 8.14112 1.12624 6.61695 1.12624Z" fill="#F76858"/>
<path d="M6.61652 16C5.08486 16 3.63577 15.6021 2.53956 14.8663C1.49592 14.168 0.925293 13.2145 0.925293 12.1858C0.925293 11.1572 1.50343 10.2112 2.53956 9.52042C4.78453 8.01877 8.43352 8.01877 10.6785 9.52042C10.9338 9.69311 11.0088 10.046 10.8362 10.3013C10.6635 10.5641 10.3106 10.6316 10.0553 10.4589C8.18575 9.21258 5.0323 9.21258 3.16275 10.4589C2.44196 10.9395 2.05153 11.5476 2.05153 12.1858C2.05153 12.824 2.44947 13.4472 3.16275 13.9278C4.07124 14.5359 5.29507 14.8663 6.60901 14.8663C6.91685 14.8663 7.17213 15.1216 7.17213 15.4294C7.17213 15.7372 6.92436 16 6.61652 16Z" fill="#F76858"/>
</svg>
