<svg width="47" height="47" viewBox="0 0 47 47" fill="none" xmlns="http://www.w3.org/2000/svg">
<path d="M44.5888 2.41118L20.5042 26.4958M2.53072 17.7033L43.8776 2.05457C44.0268 1.99752 44.1893 1.98488 44.3455 2.01818C44.5017 2.05147 44.6449 2.12928 44.7578 2.2422C44.8707 2.35513 44.9485 2.49833 44.9818 2.65452C45.0151 2.8107 45.0025 2.97319 44.9454 3.12235L29.2967 44.4693C29.2344 44.6263 29.1256 44.7605 28.9848 44.8538C28.844 44.9471 28.678 44.9951 28.5092 44.9913C28.3403 44.9874 28.1767 44.932 28.0403 44.8324C27.9038 44.7328 27.8012 44.5938 27.7461 44.4341L20.7792 27.2659C20.698 27.0226 20.5613 26.8015 20.3799 26.6201C20.1985 26.4387 19.9774 26.302 19.7341 26.2208L2.56587 19.2601C2.40414 19.2062 2.26298 19.1038 2.16173 18.9667C2.06047 18.8295 2.00406 18.6645 2.00021 18.4941C1.99636 18.3237 2.04527 18.1562 2.14023 18.0147C2.2352 17.8731 2.37158 17.7644 2.53072 17.7033Z" stroke="#FCFCFC" stroke-width="3.30775" stroke-linecap="round" stroke-linejoin="round" />
</svg>
