<svg width="20" height="20" viewBox="0 0 20 20" fill="none" xmlns="http://www.w3.org/2000/svg">
<path fill-rule="evenodd" clip-rule="evenodd" d="M7.36481 4.74984C7.71081 4.74984 7.99081 5.02984 7.99081 5.37484V7.49984C7.99081 7.69876 8.06983 7.88952 8.21048 8.03017C8.35114 8.17083 8.5419 8.24984 8.74081 8.24984C8.93973 8.24984 9.13049 8.17083 9.27114 8.03017C9.4118 7.88952 9.49081 7.69876 9.49081 7.49984V3.87484C9.49081 3.79277 9.50698 3.71149 9.53839 3.63567C9.5698 3.55984 9.61584 3.49094 9.67387 3.4329C9.73191 3.37486 9.80081 3.32883 9.87664 3.29742C9.95247 3.26601 10.0337 3.24984 10.1158 3.24984C10.1979 3.24984 10.2792 3.26601 10.355 3.29742C10.4308 3.32883 10.4997 3.37486 10.5578 3.4329C10.6158 3.49094 10.6618 3.55984 10.6932 3.63567C10.7246 3.71149 10.7408 3.79277 10.7408 3.87484V6.99984C10.7408 7.19876 10.8198 7.38952 10.9605 7.53017C11.1011 7.67083 11.2919 7.74984 11.4908 7.74984C11.6897 7.74984 11.8805 7.67083 12.0211 7.53017C12.1618 7.38952 12.2408 7.19876 12.2408 6.99984V4.87384C12.2409 4.70808 12.3069 4.54916 12.4242 4.43205C12.5415 4.31493 12.7006 4.24921 12.8663 4.24934C13.0321 4.24948 13.191 4.31545 13.3081 4.43275C13.4252 4.55006 13.4909 4.70908 13.4908 4.87484V7.49984C13.4908 7.69876 13.5698 7.88952 13.7105 8.03017C13.8511 8.17083 14.0419 8.24984 14.2408 8.24984C14.4397 8.24984 14.6305 8.17083 14.7711 8.03017C14.9118 7.88952 14.9908 7.69876 14.9908 7.49984V6.49984C14.9908 6.43354 15.0172 6.36995 15.064 6.32307C15.1109 6.27618 15.1745 6.24984 15.2408 6.24984H15.6158C15.9608 6.24984 16.2408 6.52984 16.2408 6.87484V11.4998C16.2408 11.5256 16.2422 11.5513 16.2448 11.5768C16.2248 13.3328 15.5648 14.6008 14.6218 15.4388C13.6508 16.3018 12.3348 16.7498 10.9948 16.7498C8.39881 16.7498 6.59481 15.0418 5.14081 12.6188C5.13283 12.6053 5.12449 12.592 5.11581 12.5788C4.78816 12.0788 4.47043 11.5724 4.16281 11.0598C3.59481 10.1238 4.18081 8.93584 5.24081 8.76984V9.99984C5.24081 10.1988 5.31983 10.3895 5.46048 10.5302C5.60114 10.6708 5.7919 10.7498 5.99081 10.7498C6.18973 10.7498 6.38049 10.6708 6.52114 10.5302C6.6618 10.3895 6.74081 10.1988 6.74081 9.99984V5.37484C6.74081 5.02984 7.01981 4.74984 7.36481 4.74984ZM3.86181 13.4008C3.52464 12.8863 3.19758 12.3652 2.88081 11.8378C1.68981 9.87284 3.04081 7.43584 5.24081 7.25984V5.37484C5.24058 5.03658 5.32111 4.70315 5.47569 4.40228C5.63027 4.1014 5.85445 3.84178 6.12958 3.64499C6.40471 3.4482 6.72284 3.31994 7.05752 3.27087C7.39221 3.22179 7.73377 3.25333 8.05381 3.36284C8.15873 2.94103 8.39042 2.5615 8.71767 2.27541C9.04492 1.98932 9.45199 1.81042 9.88405 1.7628C10.3161 1.71518 10.7524 1.80114 11.1341 2.00909C11.5158 2.21704 11.8246 2.537 12.0188 2.92584C12.3339 2.78878 12.6775 2.73016 13.0202 2.75502C13.3629 2.77988 13.6945 2.88747 13.9865 3.06857C14.2785 3.24967 14.5222 3.49888 14.6968 3.79484C14.8714 4.0908 14.9716 4.42467 14.9888 4.76784C15.0718 4.75584 15.1558 4.74984 15.2418 4.74984H15.6168C16.7898 4.74984 17.7418 5.70084 17.7418 6.87484V11.4188C17.7446 11.4458 17.7459 11.4728 17.7458 11.4998C17.7458 13.7038 16.9118 15.4108 15.6188 16.5598C14.3398 17.6978 12.6558 18.2498 10.9958 18.2498C7.60082 18.2498 5.40581 15.9698 3.86181 13.4008Z" fill="#333333"/>
<path d="M7.36481 4.74984C7.71081 4.74984 7.99081 5.02984 7.99081 5.37484V7.49984C7.99081 7.69876 8.06983 7.88952 8.21048 8.03017C8.35114 8.17083 8.5419 8.24984 8.74081 8.24984C8.93973 8.24984 9.13049 8.17083 9.27114 8.03017C9.4118 7.88952 9.49081 7.69876 9.49081 7.49984V3.87484C9.49081 3.79277 9.50698 3.71149 9.53839 3.63567C9.5698 3.55984 9.61584 3.49094 9.67387 3.4329C9.73191 3.37486 9.80081 3.32883 9.87664 3.29742C9.95247 3.26601 10.0337 3.24984 10.1158 3.24984C10.1979 3.24984 10.2792 3.26601 10.355 3.29742C10.4308 3.32883 10.4997 3.37486 10.5578 3.4329C10.6158 3.49094 10.6618 3.55984 10.6932 3.63567C10.7246 3.71149 10.7408 3.79277 10.7408 3.87484V6.99984C10.7408 7.19876 10.8198 7.38952 10.9605 7.53017C11.1011 7.67083 11.2919 7.74984 11.4908 7.74984C11.6897 7.74984 11.8805 7.67083 12.0211 7.53017C12.1618 7.38952 12.2408 7.19876 12.2408 6.99984V4.87384C12.2409 4.70808 12.3069 4.54916 12.4242 4.43205C12.5415 4.31493 12.7006 4.24921 12.8663 4.24934C13.0321 4.24948 13.191 4.31545 13.3081 4.43275C13.4252 4.55006 13.4909 4.70908 13.4908 4.87484V7.49984C13.4908 7.69876 13.5698 7.88952 13.7105 8.03017C13.8511 8.17083 14.0419 8.24984 14.2408 8.24984C14.4397 8.24984 14.6305 8.17083 14.7711 8.03017C14.9118 7.88952 14.9908 7.69876 14.9908 7.49984V6.49984C14.9908 6.43354 15.0172 6.36995 15.064 6.32307C15.1109 6.27618 15.1745 6.24984 15.2408 6.24984H15.6158C15.9608 6.24984 16.2408 6.52984 16.2408 6.87484V11.4998C16.2408 11.5256 16.2422 11.5513 16.2448 11.5768C16.2248 13.3328 15.5648 14.6008 14.6218 15.4388C13.6508 16.3018 12.3348 16.7498 10.9948 16.7498C8.39881 16.7498 6.59481 15.0418 5.14081 12.6188C5.13283 12.6053 5.12449 12.592 5.11581 12.5788C4.78816 12.0788 4.47043 11.5724 4.16281 11.0598C3.59481 10.1238 4.18081 8.93584 5.24081 8.76984V9.99984C5.24081 10.1988 5.31983 10.3895 5.46048 10.5302C5.60114 10.6708 5.7919 10.7498 5.99081 10.7498C6.18973 10.7498 6.38049 10.6708 6.52114 10.5302C6.6618 10.3895 6.74081 10.1988 6.74081 9.99984V5.37484C6.74081 5.02984 7.01981 4.74984 7.36481 4.74984Z" fill="#FCFCFC"/>
<path fill-rule="evenodd" clip-rule="evenodd" d="M3.44106 13.6701C3.10227 13.1525 2.77354 12.6284 2.45506 12.0981C1.14806 9.94213 2.46506 7.31313 4.74406 6.82913V5.37613C4.74399 5.00053 4.82452 4.62928 4.98022 4.28747C5.13592 3.94567 5.36316 3.64125 5.64659 3.39479C5.93002 3.14833 6.26304 2.96556 6.62316 2.85883C6.98328 2.7521 7.36211 2.7239 7.73406 2.77613C7.92552 2.36077 8.22218 2.00264 8.59465 1.73722C8.96713 1.47181 9.40248 1.30832 9.85759 1.26295C10.3127 1.21758 10.7718 1.29191 11.1893 1.47857C11.6068 1.66523 11.9684 1.95774 12.2381 2.32713C12.9149 2.16109 13.6299 2.27045 14.2261 2.63119C14.8224 2.99193 15.2511 3.57456 15.4181 4.25113H15.6181C15.9629 4.251 16.3043 4.3188 16.6229 4.45066C16.9415 4.58252 17.231 4.77585 17.4749 5.01962C17.7187 5.26339 17.9122 5.55281 18.0441 5.87135C18.1761 6.1899 18.2441 6.53132 18.2441 6.87613V11.3971C18.2471 11.4311 18.2481 11.4671 18.2481 11.5011C18.2481 13.8411 17.3581 15.6861 15.9541 16.9351C14.5711 18.1641 12.7641 18.7511 10.9981 18.7511C7.34006 18.7511 5.01506 16.2831 3.44106 13.6701ZM3.86406 13.4021C3.52688 12.8876 3.19982 12.3665 2.88306 11.8391C1.69206 9.87413 3.04306 7.43713 5.24306 7.26113V5.37613C5.24283 5.03787 5.32335 4.70443 5.47793 4.40356C5.63252 4.10269 5.85669 3.84306 6.13182 3.64628C6.40695 3.44949 6.72508 3.32123 7.05977 3.27215C7.39445 3.22308 7.73601 3.25461 8.05606 3.36413C8.1605 2.94193 8.39197 2.56194 8.71923 2.27547C9.04649 1.989 9.45377 1.80985 9.88608 1.7622C10.3184 1.71455 10.7549 1.80071 11.1367 2.00903C11.5185 2.21735 11.8272 2.53781 12.0211 2.92713C12.3362 2.79031 12.6797 2.73188 13.0223 2.75685C13.3649 2.78182 13.6964 2.88944 13.9883 3.0705C14.2803 3.25156 14.524 3.50066 14.6986 3.79649C14.8732 4.09231 14.9736 4.42605 14.9911 4.76913C15.0741 4.75713 15.1581 4.75113 15.2441 4.75113H15.6191C16.7921 4.75113 17.7441 5.70213 17.7441 6.87613V11.4201C17.7468 11.447 17.7482 11.4741 17.7481 11.5011C17.7481 13.7051 16.9141 15.4121 15.6211 16.5611C14.3421 17.6991 12.6581 18.2511 10.9981 18.2511C7.60306 18.2511 5.40806 15.9711 3.86406 13.4021Z" fill="#333333"/>
</svg>
