<svg width="35" height="25" viewBox="0 0 50 50" fill="none" xmlns="http://www.w3.org/2000/svg">
<path d="M44.2308 6.52174H37.5673L34.2909 0.967392C34.1153 0.669977 33.8776 0.426095 33.5988 0.257352C33.3199 0.0886092 33.0086 0.000214687 32.6923 0H17.3077C16.9914 0.000214687 16.6801 0.0886092 16.4012 0.257352C16.1224 0.426095 15.8847 0.669977 15.7091 0.967392L12.4303 6.52174H5.76923C4.23914 6.52174 2.77171 7.20885 1.68977 8.43191C0.607828 9.65498 0 11.3138 0 13.0435V43.4783C0 45.2079 0.607828 46.8668 1.68977 48.0898C2.77171 49.3129 4.23914 50 5.76923 50H44.2308C45.7609 50 47.2283 49.3129 48.3102 48.0898C49.3922 46.8668 50 45.2079 50 43.4783V13.0435C50 11.3138 49.3922 9.65498 48.3102 8.43191C47.2283 7.20885 45.7609 6.52174 44.2308 6.52174ZM46.1538 43.4783C46.1538 44.0548 45.9512 44.6078 45.5906 45.0154C45.2299 45.4231 44.7408 45.6522 44.2308 45.6522H5.76923C5.2592 45.6522 4.77006 45.4231 4.40941 45.0154C4.04876 44.6078 3.84615 44.0548 3.84615 43.4783V13.0435C3.84615 12.4669 4.04876 11.914 4.40941 11.5063C4.77006 11.0986 5.2592 10.8696 5.76923 10.8696H13.4615C13.7782 10.8698 14.0901 10.7816 14.3693 10.6129C14.6486 10.4441 14.8867 10.2 15.0625 9.90217L18.3365 4.34783H31.6611L34.9375 9.90217C35.1133 10.2 35.3514 10.4441 35.6306 10.6129C35.9099 10.7816 36.2218 10.8698 36.5385 10.8696H44.2308C44.7408 10.8696 45.2299 11.0986 45.5906 11.5063C45.9512 11.914 46.1538 12.4669 46.1538 13.0435V43.4783ZM25 15.2174C22.9081 15.2174 20.8631 15.9186 19.1238 17.2324C17.3844 18.5462 16.0287 20.4136 15.2282 22.5983C14.4277 24.7831 14.2182 27.1872 14.6263 29.5065C15.0344 31.8259 16.0418 33.9563 17.521 35.6285C19.0002 37.3006 20.8848 38.4394 22.9365 38.9007C24.9883 39.362 27.1149 39.1253 29.0476 38.2203C30.9803 37.3153 32.6322 35.7828 33.7944 33.8166C34.9566 31.8504 35.5769 29.5387 35.5769 27.1739C35.5737 24.004 34.4584 20.9648 32.4755 18.7233C30.4926 16.4818 27.8042 15.221 25 15.2174ZM25 34.7826C23.6688 34.7826 22.3675 34.3364 21.2606 33.5003C20.1537 32.6643 19.291 31.4759 18.7816 30.0856C18.2721 28.6953 18.1389 27.1655 18.3986 25.6895C18.6583 24.2136 19.2993 22.8578 20.2406 21.7938C21.1819 20.7297 22.3812 20.005 23.6869 19.7114C24.9925 19.4178 26.3459 19.5685 27.5758 20.1444C28.8056 20.7203 29.8568 21.6955 30.5964 22.9467C31.336 24.198 31.7308 25.6691 31.7308 27.1739C31.7308 29.1919 31.0216 31.1272 29.7594 32.5541C28.4971 33.981 26.7851 34.7826 25 34.7826Z" fill="#F76858"/>
</svg>
