<svg width="58" height="50" viewBox="0 0 58 50" fill="none" xmlns="http://www.w3.org/2000/svg">
<path d="M0 50V41.25C0 39.4792 0.384909 37.8511 1.15473 36.3657C1.92455 34.8802 2.9457 33.7479 4.21818 32.9688C6.94242 31.3542 9.71061 30.1427 12.5227 29.3344C15.3348 28.5261 18.1909 28.123 21.0909 28.125C23.9909 28.125 26.847 28.5292 29.6591 29.3375C32.4712 30.1459 35.2394 31.3563 37.9636 32.9688C39.2379 33.75 40.2599 34.8834 41.0297 36.3688C41.7995 37.8542 42.1836 39.4813 42.1818 41.25V50H0ZM47.4545 50V40.625C47.4545 38.3334 46.9158 36.1323 45.8385 34.0219C44.7611 31.9115 43.2346 30.1021 41.2591 28.5938C43.5 28.9063 45.6091 29.4407 47.5864 30.1969C49.5636 30.9532 51.4091 31.8771 53.1227 32.9688C54.7045 34.0104 55.9129 35.1688 56.7477 36.4438C57.5826 37.7188 58 39.1125 58 40.625V50H47.4545ZM21.0909 25C18.1909 25 15.7083 23.7761 13.6432 21.3282C11.578 18.8803 10.5455 15.9376 10.5455 12.5001C10.5455 9.06257 11.578 6.11986 13.6432 3.67195C15.7083 1.22404 18.1909 8.0127e-05 21.0909 8.0127e-05C23.9909 8.0127e-05 26.4735 1.22404 28.5386 3.67195C30.6038 6.11986 31.6364 9.06257 31.6364 12.5001C31.6364 15.9376 30.6038 18.8803 28.5386 21.3282C26.4735 23.7761 23.9909 25 21.0909 25ZM47.4545 12.5001C47.4545 15.9376 46.422 18.8803 44.3568 21.3282C42.2917 23.7761 39.8091 25 36.9091 25C36.4258 25 35.8106 24.9344 35.0636 24.8032C34.3167 24.6719 33.7015 24.5292 33.2182 24.375C34.4045 22.7084 35.3167 20.8594 35.9547 18.8282C36.5927 16.7969 36.9109 14.6876 36.9091 12.5001C36.9091 10.3126 36.591 8.20319 35.9547 6.17195C35.3185 4.1407 34.4063 2.29174 33.2182 0.625079C33.8333 0.364662 34.4485 0.194872 35.0636 0.115706C35.6788 0.036539 36.2939 -0.0020032 36.9091 8.0127e-05C39.8091 8.0127e-05 42.2917 1.22404 44.3568 3.67195C46.422 6.11986 47.4545 9.06257 47.4545 12.5001Z" fill="#F04A94"/>
</svg>
