<svg width="20" height="20" viewBox="0 0 20 20" fill="none" xmlns="http://www.w3.org/2000/svg">
<path d="M8.33337 10C8.33337 10.442 8.50897 10.866 8.82153 11.1785C9.13409 11.4911 9.55801 11.6667 10 11.6667C10.4421 11.6667 10.866 11.4911 11.1786 11.1785C11.4911 10.866 11.6667 10.442 11.6667 10C11.6667 9.55797 11.4911 9.13405 11.1786 8.82149C10.866 8.50893 10.4421 8.33334 10 8.33334C9.55801 8.33334 9.13409 8.50893 8.82153 8.82149C8.50897 9.13405 8.33337 9.55797 8.33337 10ZM8.33337 5C8.33337 5.44203 8.50897 5.86595 8.82153 6.17851C9.13409 6.49107 9.55801 6.66667 10 6.66667C10.4421 6.66667 10.866 6.49107 11.1786 6.17851C11.4911 5.86595 11.6667 5.44203 11.6667 5C11.6667 4.55798 11.4911 4.13405 11.1786 3.82149C10.866 3.50893 10.4421 3.33334 10 3.33334C9.55801 3.33334 9.13409 3.50893 8.82153 3.82149C8.50897 4.13405 8.33337 4.55798 8.33337 5ZM8.33337 15C8.33337 15.442 8.50897 15.866 8.82153 16.1785C9.13409 16.4911 9.55801 16.6667 10 16.6667C10.4421 16.6667 10.866 16.4911 11.1786 16.1785C11.4911 15.866 11.6667 15.442 11.6667 15C11.6667 14.558 11.4911 14.1341 11.1786 13.8215C10.866 13.5089 10.4421 13.3333 10 13.3333C9.55801 13.3333 9.13409 13.5089 8.82153 13.8215C8.50897 14.1341 8.33337 14.558 8.33337 15Z" fill="#F76858"/>
</svg>
