<svg width="20" height="20" viewBox="0 0 20 20" fill="none" xmlns="http://www.w3.org/2000/svg">
<path d="M8.33333 10C8.33333 10.442 8.50892 10.866 8.82148 11.1785C9.13404 11.4911 9.55797 11.6667 9.99999 11.6667C10.442 11.6667 10.8659 11.4911 11.1785 11.1785C11.4911 10.866 11.6667 10.442 11.6667 10C11.6667 9.55797 11.4911 9.13405 11.1785 8.82149C10.8659 8.50893 10.442 8.33333 9.99999 8.33333C9.55797 8.33333 9.13404 8.50893 8.82148 8.82149C8.50892 9.13405 8.33333 9.55797 8.33333 10ZM8.33333 5C8.33333 5.44203 8.50892 5.86595 8.82148 6.17851C9.13404 6.49107 9.55797 6.66667 9.99999 6.66667C10.442 6.66667 10.8659 6.49107 11.1785 6.17851C11.4911 5.86595 11.6667 5.44203 11.6667 5C11.6667 4.55797 11.4911 4.13405 11.1785 3.82149C10.8659 3.50893 10.442 3.33333 9.99999 3.33333C9.55797 3.33333 9.13404 3.50893 8.82148 3.82149C8.50892 4.13405 8.33333 4.55797 8.33333 5ZM8.33333 15C8.33333 15.442 8.50892 15.866 8.82148 16.1785C9.13404 16.4911 9.55797 16.6667 9.99999 16.6667C10.442 16.6667 10.8659 16.4911 11.1785 16.1785C11.4911 15.866 11.6667 15.442 11.6667 15C11.6667 14.558 11.4911 14.1341 11.1785 13.8215C10.8659 13.5089 10.442 13.3333 9.99999 13.3333C9.55797 13.3333 9.13404 13.5089 8.82148 13.8215C8.50892 14.1341 8.33333 14.558 8.33333 15Z" fill="#F04A94"/>
</svg>
