<svg width="25" height="23" viewBox="0 0 25 23" fill="none" xmlns="http://www.w3.org/2000/svg">
<path d="M12.5062 17.8556C13.6315 17.8556 14.5437 17.0485 14.5437 16.0527C14.5437 15.057 13.6315 14.2498 12.5062 14.2498C11.381 14.2498 10.4688 15.057 10.4688 16.0527C10.4688 17.0485 11.381 17.8556 12.5062 17.8556Z" fill="#FCFCFC"/>
<path d="M20.35 9.20703V7.82442C20.35 4.83797 19.5375 0.878174 12.5 0.878174C5.4625 0.878174 4.65 4.83797 4.65 7.82442V9.20703C1.15 9.59416 0 11.1648 0 15.0251V17.0824C0 21.6174 1.5625 23 6.6875 23H18.3125C23.4375 23 25 21.6174 25 17.0824V15.0251C25 11.1648 23.85 9.59416 20.35 9.20703ZM12.5 19.3941C10.4125 19.3941 8.725 17.8898 8.725 16.0537C8.725 14.2066 10.425 12.7133 12.5 12.7133C14.575 12.7133 16.275 14.2176 16.275 16.0537C16.275 17.9009 14.5875 19.3941 12.5 19.3941ZM6.6875 9.10748C6.5875 9.10748 6.5 9.10748 6.4 9.10748V7.82442C6.4 4.58357 7.4375 2.4267 12.5 2.4267C17.5625 2.4267 18.6 4.58357 18.6 7.82442V9.11854C18.5 9.11854 18.4125 9.11854 18.3125 9.11854H6.6875V9.10748Z" fill="#FCFCFC"/>
</svg>
