<svg xmlns="http://www.w3.org/2000/svg" width="20" height="20" viewBox="0 0 50 50" fill="none">
<path d="M49.1876 11.2276C50.2708 10.1444 50.2708 8.33912 49.1876 7.31148L42.6885 0.812387C41.6609 -0.270796 39.8556 -0.270796 38.7724 0.812387L33.662 5.89501L44.0772 16.3102M0.292572 39.2919C0.105231 39.4795 0 39.7337 0 39.9987V49C0 49.5523 0.447715 50 1 50H10.0007C10.2661 50 10.5206 49.8945 10.7082 49.7068L41.1332 19.2543L30.718 8.83905L0.292572 39.2919Z" fill="#3C3C3C"/>
<path d="M44.0772 16.3102L33.662 5.89501L30.718 8.83905L41.1332 19.2543L44.0772 16.3102Z" fill="#FCFCFC"/>
</svg>