<svg width="49" height="50" viewBox="0 0 49 50" fill="none" xmlns="http://www.w3.org/2000/svg">
<path d="M5.55556 50C4.02778 50 2.71945 49.4556 1.63056 48.3667C0.541671 47.2778 -0.00184714 45.9704 4.71609e-06 44.4444V5.55556C4.71609e-06 4.02778 0.544449 2.71945 1.63334 1.63056C2.72223 0.541671 4.02963 -0.00184714 5.55556 4.71609e-06H22.2222C23.7563 4.71609e-06 25 1.24366 25 2.77778C25 4.31191 23.7563 5.55556 22.2222 5.55556H6.55556C6.00327 5.55556 5.55556 6.00327 5.55556 6.55556V43.4444C5.55556 43.9967 6.00327 44.4444 6.55556 44.4444H22.2222C23.7563 44.4444 25 45.6881 25 47.2222C25 48.7563 23.7563 50 22.2222 50H5.55556ZM38.1257 36.8743C37.0218 37.9782 35.2249 37.9543 34.1507 36.8216C33.1161 35.7305 33.1389 34.0139 34.2021 32.9507L39.375 27.7778H19.4444C17.9103 27.7778 16.6667 26.5341 16.6667 25C16.6667 23.4659 17.9103 22.2222 19.4444 22.2222H39.375L34.2021 17.0493C33.1389 15.9861 33.1161 14.2695 34.1507 13.1785C35.2249 12.0457 37.0218 12.0218 38.1257 13.1257L47.1716 22.1716C48.7337 23.7337 48.7337 26.2663 47.1716 27.8284L38.1257 36.8743Z" fill="#FCFCFC"/>
</svg>
