<svg width="38" height="37" viewBox="0 0 38 37" fill="none" xmlns="http://www.w3.org/2000/svg">
<path d="M37.5 22.4592C37.5 22.4845 37.4994 22.5087 37.4983 22.535C37.4662 23.1189 37.0717 23.6194 36.5117 23.7834L28.0232 26.2778L26.2242 35.3881C26.1104 35.9636 25.6465 36.4038 25.0683 36.4863C24.4903 36.5684 23.9226 36.2757 23.6541 35.7543L12.2445 13.6452C11.9783 13.1325 12.0627 12.5051 12.4527 12.0782C12.8437 11.65 13.4586 11.515 13.9922 11.7373L36.6521 21.1864C37.1686 21.4007 37.5 21.9042 37.5 22.4592Z" fill="#333333"/>
<path d="M10.753 1.92105C15.677 1.92105 19.6687 6.16256 19.6687 11.3947C19.6687 11.97 19.6204 12.5333 19.528 13.0803L20.7947 13.606C20.9332 12.892 21.006 12.1524 21.006 11.3947C21.006 5.37774 16.4156 0.5 10.753 0.5C5.09043 0.5 0.5 5.37774 0.5 11.3947C0.5 17.4117 5.09043 22.2895 10.753 22.2895C12.3477 22.2895 13.8573 21.9026 15.2033 21.2125L14.5567 19.9654C13.403 20.5446 12.1136 20.8684 10.753 20.8684C5.82903 20.8684 1.83735 16.6269 1.83735 11.3947C1.83735 6.16256 5.82903 1.92105 10.753 1.92105Z" fill="#333333"/>
<path d="M13.478 17.8852C12.6457 18.2803 11.7235 18.5 10.753 18.5C7.06002 18.5 4.06627 15.3189 4.06627 11.3947C4.06627 7.47061 7.06002 4.28947 10.753 4.28947C14.446 4.28947 17.4398 7.47061 17.4398 11.3947C17.4398 11.6657 17.4255 11.9332 17.3977 12.1963L14.7556 11.0998C14.613 8.88289 12.8755 7.13158 10.753 7.13158C8.53722 7.13158 6.74096 9.04026 6.74096 11.3947C6.74096 13.7492 8.53722 15.6579 10.753 15.6579C11.2554 15.6579 11.7362 15.5598 12.1793 15.3806L13.478 17.8852Z" fill="#333333"/>
</svg>
