<svg width="37" height="36" viewBox="0 0 37 36" fill="currentColor" xmlns="http://www.w3.org/2000/svg" >
<path d="M37 21.9592C37 21.9845 36.9994 22.0087 36.9983 22.035C36.9662 22.6189 36.5717 23.1194 36.0117 23.2834L27.5232 25.7778L25.7242 34.8881C25.6104 35.4636 25.1465 35.9038 24.5683 35.9863C23.9903 36.0684 23.4226 35.7757 23.1541 35.2543L11.7445 13.1452C11.4783 12.6325 11.5627 12.0051 11.9527 11.5782C12.3437 11.15 12.9586 11.015 13.4922 11.2373L36.1521 20.6864C36.6686 20.9007 37 21.4042 37 21.9592Z" fill="#FCFCFC"/>
<path d="M10.253 1.42105C15.177 1.42105 19.1687 5.66256 19.1687 10.8947C19.1687 11.47 19.1204 12.0333 19.028 12.5803L20.2947 13.106C20.4332 12.392 20.506 11.6524 20.506 10.8947C20.506 4.87774 15.9156 -8.34465e-07 10.253 -8.34465e-07C4.59043 -8.34465e-07 0 4.87774 0 10.8947C0 16.9117 4.59043 21.7895 10.253 21.7895C11.8477 21.7895 13.3573 21.4026 14.7033 20.7125L14.0567 19.4654C12.903 20.0446 11.6136 20.3684 10.253 20.3684C5.32903 20.3684 1.33735 16.1269 1.33735 10.8947C1.33735 5.66256 5.32903 1.42105 10.253 1.42105Z" fill="#FCFCFC"/>
<path d="M12.978 17.3852C12.1457 17.7803 11.2235 18 10.253 18C6.56002 18 3.56627 14.8189 3.56627 10.8947C3.56627 6.97061 6.56002 3.78947 10.253 3.78947C13.946 3.78947 16.9398 6.97061 16.9398 10.8947C16.9398 11.1657 16.9255 11.4332 16.8977 11.6963L14.2556 10.5998C14.113 8.38289 12.3755 6.63158 10.253 6.63158C8.03722 6.63158 6.24096 8.54026 6.24096 10.8947C6.24096 13.2492 8.03722 15.1579 10.253 15.1579C10.7554 15.1579 11.2362 15.0598 11.6793 14.8806L12.978 17.3852Z" fill="#FCFCFC"/>
</svg>
