<svg width="60" height="60" viewBox="0 0 60 60" fill="none" xmlns="http://www.w3.org/2000/svg">
<path d="M17.4 0.493164H42.6C51.9276 0.493164 59.5068 8.07237 59.5068 17.4V42.6C59.5068 47.084 57.7256 51.3843 54.5549 54.5549C51.3843 57.7256 47.084 59.5068 42.6 59.5068H17.4C8.07237 59.5068 0.493164 51.9276 0.493164 42.6V17.4C0.493164 12.916 2.27442 8.61571 5.44506 5.44506C8.61571 2.27442 12.916 0.493164 17.4 0.493164ZM16.8 5.50684C13.8049 5.50684 10.9324 6.69665 8.81453 8.81453C6.69665 10.9324 5.50684 13.8049 5.50684 16.8V43.2C5.50684 49.4424 10.5576 54.4932 16.8 54.4932H43.2C46.1951 54.4932 49.0676 53.3034 51.1855 51.1855C53.3034 49.0676 54.4932 46.1951 54.4932 43.2V16.8C54.4932 10.5576 49.4424 5.50684 43.2 5.50684H16.8ZM45.75 10.9932C46.6138 10.9932 47.4422 11.3363 48.0529 11.9471C48.6637 12.5578 49.0068 13.3862 49.0068 14.25C49.0068 15.1138 48.6637 15.9422 48.0529 16.5529C47.4422 17.1637 46.6138 17.5068 45.75 17.5068C44.8862 17.5068 44.0578 17.1637 43.4471 16.5529C42.8363 15.9422 42.4932 15.1138 42.4932 14.25C42.4932 13.3862 42.8363 12.5578 43.4471 11.9471C44.0578 11.3363 44.8862 10.9932 45.75 10.9932ZM30 15.4932C33.8475 15.4932 37.5373 17.0216 40.2579 19.7421C42.9784 22.4627 44.5068 26.1525 44.5068 30C44.5068 33.8475 42.9784 37.5373 40.2579 40.2579C37.5373 42.9784 33.8475 44.5068 30 44.5068C26.1525 44.5068 22.4627 42.9784 19.7421 40.2579C17.0216 37.5373 15.4932 33.8475 15.4932 30C15.4932 26.1525 17.0216 22.4627 19.7421 19.7421C22.4627 17.0216 26.1525 15.4932 30 15.4932ZM30 20.5068C27.4823 20.5068 25.0676 21.507 23.2873 23.2873C21.507 25.0676 20.5068 27.4823 20.5068 30C20.5068 32.5177 21.507 34.9324 23.2873 36.7127C25.0676 38.493 27.4823 39.4932 30 39.4932C32.5177 39.4932 34.9324 38.493 36.7127 36.7127C38.493 34.9324 39.4932 32.5177 39.4932 30C39.4932 27.4823 38.493 25.0676 36.7127 23.2873C34.9324 21.507 32.5177 20.5068 30 20.5068Z" fill="#FCFCFC" stroke="#F04A94" stroke-width="0.986328"/>
</svg>
