<svg width="56" height="53" viewBox="0 0 56 53" fill="none" xmlns="http://www.w3.org/2000/svg">
<g filter="url(#filter0_d_1020_20761)">
<path d="M14.1875 5.67627C14.1868 6.97127 13.6594 8.21298 12.7213 9.12823C11.7831 10.0435 10.5111 10.5573 9.185 10.5566C7.85892 10.556 6.58741 10.0409 5.6502 9.12477C4.71299 8.20861 4.18684 6.96639 4.1875 5.67139C4.18816 4.37639 4.71558 3.13468 5.65373 2.21943C6.59188 1.30419 7.86392 0.790369 9.19 0.791016C10.5161 0.791664 11.7876 1.30672 12.7248 2.22289C13.662 3.13905 14.1882 4.38127 14.1875 5.67627ZM14.3375 14.1724H4.3375V44.7388H14.3375V14.1724ZM30.1375 14.1724H20.1875V44.7388H30.0375V28.6987C30.0375 19.7632 41.9625 18.9331 41.9625 28.6987V44.7388H51.8375V25.3784C51.8375 10.3149 34.1875 10.8765 30.0375 18.2739L30.1375 14.1724Z" fill="#FCFCFC"/>
<path d="M51.3443 25.3784V44.2456H42.4557V28.6987C42.4557 26.1551 41.677 24.2442 40.4537 22.9794C39.232 21.7164 37.6031 21.1365 35.9828 21.1929C32.7267 21.3063 29.5443 23.9748 29.5443 28.6987V44.2456H20.6807V14.6655H29.6322L29.5445 18.2619L30.4676 18.5152C31.4343 16.792 33.2091 15.4337 35.371 14.6054C37.5296 13.7784 40.0362 13.4956 42.4131 13.8898C44.7874 14.2836 47.0133 15.3489 48.6449 17.1993C50.273 19.0457 51.3443 21.7131 51.3443 25.3784ZM13.6943 5.67602C13.6937 6.8364 13.2213 7.95146 12.3769 8.77522C11.5321 9.59937 10.3843 10.0641 9.18524 10.0635C7.98623 10.0629 6.83886 9.59708 5.99494 8.77211C5.15141 7.94754 4.68007 6.83202 4.68066 5.67164C4.68126 4.51126 5.15374 3.39619 5.99812 2.57243C6.84289 1.74829 7.99075 1.28359 9.18976 1.28418C10.3888 1.28477 11.5361 1.75058 12.3801 2.57554C13.2236 3.40012 13.6949 4.51564 13.6943 5.67602ZM4.83066 44.2456V14.6655H13.8443V44.2456H4.83066Z" stroke="#FCFCFC" stroke-width="0.986328"/>
</g>
<defs>
<filter id="filter0_d_1020_20761" x="0.1875" y="0.791016" width="55.6484" height="51.9473" filterUnits="userSpaceOnUse" color-interpolation-filters="sRGB">
<feFlood flood-opacity="0" result="BackgroundImageFix"/>
<feColorMatrix in="SourceAlpha" type="matrix" values="0 0 0 0 0 0 0 0 0 0 0 0 0 0 0 0 0 0 127 0" result="hardAlpha"/>
<feOffset dy="4"/>
<feGaussianBlur stdDeviation="2"/>
<feComposite in2="hardAlpha" operator="out"/>
<feColorMatrix type="matrix" values="0 0 0 0 0 0 0 0 0 0 0 0 0 0 0 0 0 0 0.25 0"/>
<feBlend mode="normal" in2="BackgroundImageFix" result="effect1_dropShadow_1020_20761"/>
<feBlend mode="normal" in="SourceGraphic" in2="effect1_dropShadow_1020_20761" result="shape"/>
</filter>
</defs>
</svg>
